<svg width="325" height="164" viewBox="0 0 325 164" fill="none" xmlns="http://www.w3.org/2000/svg">
<rect x="10" y="1" width="315" height="157" rx="20" fill="#3B3B3B"/>
<path d="M80.0006 121.166C103.013 121.166 121.667 102.512 121.667 79.4997C121.667 56.4878 103.013 37.833 80.0006 37.833C56.9888 37.833 38.334 56.4878 38.334 79.4997C38.334 102.512 56.9888 121.166 80.0006 121.166Z" fill="url(#paint0_linear_2916_3910)"/>
<g filter="url(#filter0_f_2916_3910)">
<path d="M82.5353 109.935C97.9432 109.935 110.434 97.4442 110.434 82.0362C110.434 66.6283 97.9432 54.1377 82.5353 54.1377C67.1273 54.1377 54.6367 66.6283 54.6367 82.0362C54.6367 97.4442 67.1273 109.935 82.5353 109.935Z" fill="url(#paint1_linear_2916_3910)"/>
</g>
<path fill-rule="evenodd" clip-rule="evenodd" d="M52.4979 62.3187C53.195 62.3187 53.7601 61.7536 53.7601 61.0565C53.7601 60.3594 53.195 59.7943 52.4979 59.7943C51.8008 59.7943 51.2357 60.3594 51.2357 61.0565C51.2357 61.7536 51.8008 62.3187 52.4979 62.3187ZM52.4979 63.2654C53.7178 63.2654 54.7068 62.2764 54.7068 61.0565C54.7068 59.8366 53.7178 58.8477 52.4979 58.8477C51.278 58.8477 50.2891 59.8366 50.2891 61.0565C50.2891 62.2764 51.278 63.2654 52.4979 63.2654Z" fill="white"/>
<path fill-rule="evenodd" clip-rule="evenodd" d="M48.5135 101.45C49.2106 101.45 49.7757 100.884 49.7757 100.187C49.7757 99.4901 49.2106 98.9253 48.5135 98.9253C47.8165 98.9253 47.2514 99.4901 47.2514 100.187C47.2514 100.884 47.8165 101.45 48.5135 101.45ZM48.5135 102.396C49.7335 102.396 50.7224 101.407 50.7224 100.187C50.7224 98.9673 49.7335 97.9785 48.5135 97.9785C47.2936 97.9785 46.3047 98.9673 46.3047 100.187C46.3047 101.407 47.2936 102.396 48.5135 102.396Z" fill="white"/>
<path fill-rule="evenodd" clip-rule="evenodd" d="M107.209 48.1888C107.906 48.1888 108.471 47.6237 108.471 46.9266C108.471 46.2295 107.906 45.6644 107.209 45.6644C106.512 45.6644 105.947 46.2295 105.947 46.9266C105.947 47.6237 106.512 48.1888 107.209 48.1888ZM107.209 49.1355C108.429 49.1355 109.418 48.1465 109.418 46.9266C109.418 45.7067 108.429 44.7178 107.209 44.7178C105.989 44.7178 105 45.7067 105 46.9266C105 48.1465 105.989 49.1355 107.209 49.1355Z" fill="white"/>
<path d="M53.6928 44.7855C53.7856 44.4009 54.3327 44.4009 54.4255 44.7855L54.738 46.0799C54.7712 46.2174 54.8785 46.3247 55.0159 46.3579L56.3103 46.6703C56.6949 46.7632 56.6949 47.3102 56.3103 47.4031L55.0159 47.7155C54.8785 47.7487 54.7712 47.856 54.738 47.9935L54.4255 49.2879C54.3327 49.6725 53.7856 49.6725 53.6928 49.2879L53.3803 47.9935C53.3471 47.856 53.2398 47.7487 53.1024 47.7155L51.808 47.4031C51.4234 47.3102 51.4234 46.7632 51.808 46.6703L53.1024 46.3579C53.2398 46.3247 53.3471 46.2174 53.3803 46.0799L53.6928 44.7855Z" fill="white"/>
<path d="M111.99 57.9753C112.091 57.5538 112.691 57.5538 112.793 57.9753L113.135 59.3942C113.172 59.5448 113.289 59.6625 113.44 59.6989L114.859 60.0414C115.28 60.1431 115.28 60.7427 114.859 60.8445L113.44 61.187C113.289 61.2234 113.172 61.341 113.135 61.4917L112.793 62.9105C112.691 63.3321 112.091 63.3321 111.99 62.9105L111.647 61.4917C111.611 61.341 111.493 61.2234 111.342 61.187L109.923 60.8445C109.502 60.7427 109.502 60.1431 109.923 60.0414L111.342 59.6989C111.493 59.6625 111.611 59.5448 111.647 59.3942L111.99 57.9753Z" fill="url(#paint2_linear_2916_3910)"/>
<path d="M49.938 109.659C50.4177 109.582 50.8006 110.053 50.6273 110.507L49.4574 113.57C49.2841 114.024 48.6844 114.12 48.378 113.743L46.31 111.198C46.0035 110.821 46.2202 110.254 46.6999 110.177L49.938 109.659Z" fill="url(#paint3_linear_2916_3910)"/>
<path d="M106.442 102.691C106.322 102.22 106.757 101.796 107.224 101.927L110.382 102.815C110.849 102.946 110.999 103.535 110.651 103.874L108.305 106.164C107.957 106.504 107.372 106.339 107.252 105.869L106.442 102.691Z" fill="url(#paint4_linear_2916_3910)"/>
<g filter="url(#filter1_f_2916_3910)">
<path d="M102.112 111.553C102.112 113.789 91.507 115.601 78.4258 115.601C65.3447 115.601 54.7402 113.789 54.7402 111.553C54.7402 109.318 65.3447 107.506 78.4258 107.506C91.507 107.506 102.112 109.318 102.112 111.553Z" fill="url(#paint5_radial_2916_3910)"/>
</g>
<g filter="url(#filter2_i_2916_3910)">
<path d="M78.8866 53.4461L63.4595 56.1663C62.2202 56.3849 61.3927 57.5667 61.6112 58.8061L65.4992 80.8564C65.7178 82.0959 66.8996 82.9235 68.139 82.7046L83.5659 79.9847C84.8054 79.7662 85.6329 78.5843 85.4145 77.3448L81.5264 55.2945C81.3076 54.0552 80.1257 53.2276 78.8866 53.4461Z" fill="url(#paint6_linear_2916_3910)"/>
</g>
<path d="M79.1089 64.7809L67.125 66.894C66.7214 66.9652 66.452 67.35 66.5231 67.7536L66.5235 67.7559C66.5947 68.1595 66.9795 68.4289 67.383 68.3578L79.3672 66.2447C79.7705 66.1735 80.04 65.7887 79.969 65.3851L79.9687 65.3828C79.8973 64.9792 79.5125 64.7098 79.1089 64.7809Z" fill="url(#paint7_linear_2916_3910)"/>
<path d="M80.9327 75.079L69.0518 77.1739C68.6517 77.2445 68.3833 77.6185 68.4522 78.0094L68.4526 78.0119C68.5215 78.4029 68.9018 78.6627 69.3018 78.592L81.1827 76.4971C81.5831 76.4264 81.8512 76.0525 81.7824 75.6616L81.782 75.659C81.7132 75.2681 81.3327 75.0083 80.9327 75.079Z" fill="url(#paint8_linear_2916_3910)"/>
<path d="M79.9818 69.6903L68.1006 71.7852C67.7005 71.8558 67.4321 72.2298 67.501 72.6207L67.5014 72.6232C67.5703 73.0142 67.9506 73.274 68.3506 73.2033L80.2318 71.1084C80.6318 71.0377 80.9002 70.6637 80.8314 70.2727L80.831 70.2704C80.7618 69.8795 80.3818 69.6197 79.9818 69.6903Z" fill="url(#paint9_linear_2916_3910)"/>
<path d="M70.1614 58.4955L66.6593 59.113C65.8836 59.2498 65.3656 59.9896 65.5024 60.7653L65.6737 61.7372C65.8105 62.5129 66.5503 63.0309 67.326 62.8941L70.8281 62.2766C71.6037 62.1398 72.1219 61.4001 71.9849 60.6243L71.8135 59.6525C71.6769 58.8767 70.9371 58.3588 70.1614 58.4955Z" fill="#A259FF"/>
<g filter="url(#filter3_i_2916_3910)">
<path d="M97.2716 59.5264H76.8608C75.9097 59.5264 75.1387 60.2974 75.1387 61.2485V70.8423C75.1387 71.7934 75.9097 72.5644 76.8608 72.5644H97.2716C98.2227 72.5644 98.9937 71.7934 98.9937 70.8423V61.2485C98.9937 60.2974 98.2227 59.5264 97.2716 59.5264Z" fill="url(#paint10_linear_2916_3910)"/>
</g>
<path d="M80.175 68.0233C81.2685 68.0233 82.1551 67.1368 82.1551 66.0434C82.1551 64.9499 81.2685 64.0635 80.175 64.0635C79.0815 64.0635 78.1953 64.9499 78.1953 66.0434C78.1953 67.1368 79.0815 68.0233 80.175 68.0233Z" fill="white"/>
<path d="M87.2516 68.0233C88.345 68.0233 89.2313 67.1368 89.2313 66.0434C89.2313 64.9499 88.345 64.0635 87.2516 64.0635C86.1581 64.0635 85.2715 64.9499 85.2715 66.0434C85.2715 67.1368 86.1581 68.0233 87.2516 68.0233Z" fill="white"/>
<path d="M94.3277 68.0233C95.4212 68.0233 96.3074 67.1368 96.3074 66.0434C96.3074 64.9499 95.4212 64.0635 94.3277 64.0635C93.2343 64.0635 92.3477 64.9499 92.3477 66.0434C92.3477 67.1368 93.2343 68.0233 94.3277 68.0233Z" fill="white"/>
<path fill-rule="evenodd" clip-rule="evenodd" d="M76.4555 93.9983C76.6266 93.0276 77.5519 92.3798 78.5226 92.5508L88.7179 94.3486C90.111 94.5943 91.37 95.241 92.2624 96.1758C93.1545 97.1099 93.7588 98.4378 93.4997 99.9081C93.2403 101.378 92.2182 102.42 91.061 102.993C89.9026 103.566 88.4979 103.745 87.1045 103.499L62.8791 99.2273C61.9086 99.0563 61.2606 98.1305 61.4317 97.1602C61.6028 96.1896 62.5283 95.5418 63.4988 95.7128L87.7244 99.9845C88.4468 100.112 89.0689 99.9972 89.4773 99.795C89.886 99.5925 89.97 99.3758 89.9853 99.2885C90.0005 99.2015 89.9961 98.97 89.6816 98.6403C89.3671 98.311 88.8215 97.9907 88.0983 97.8631L77.861 95.7019C76.8907 95.5309 76.2842 94.9686 76.4555 93.9983Z" fill="url(#paint11_linear_2916_3910)"/>
<path fill-rule="evenodd" clip-rule="evenodd" d="M96.1483 75.8324C96.5317 75.0089 97.4208 74.5458 98.3154 74.7034L106.308 76.1128C107.399 76.3052 108.128 77.3458 107.936 78.4375C107.743 79.5288 106.703 80.2574 105.611 80.065L99.1356 78.923L95.3103 87.1342C94.8425 88.1389 93.6487 88.5737 92.644 88.106C91.6396 87.6378 91.2045 86.444 91.6726 85.4397L96.1483 75.8324Z" fill="url(#paint12_linear_2916_3910)"/>
<path d="M67.6593 106.335C70.0236 106.752 72.2782 105.173 72.6953 102.809C73.1119 100.444 71.5333 98.1899 69.169 97.7729C66.8047 97.3558 64.5501 98.9348 64.1332 101.299C63.7163 103.663 65.295 105.918 67.6593 106.335Z" fill="url(#paint13_linear_2916_3910)"/>
<path d="M94.3048 79.4602L64.8035 74.2584C62.5921 73.8685 60.6279 75.4562 60.7819 77.5066L61.1503 89.4722C61.2621 90.9533 62.4709 92.203 64.068 92.4845L89.7838 98.7544L96.9791 83.8946C98.637 80.8852 96.5215 79.8512 94.3048 79.4602Z" fill="url(#paint14_linear_2916_3910)"/>
<path d="M67.9164 104.19C69.1042 104.4 70.2369 103.607 70.4464 102.419C70.6558 101.231 69.8627 100.098 68.6748 99.889C67.487 99.6796 66.3543 100.473 66.1449 101.661C65.9354 102.848 66.7286 103.981 67.9164 104.19Z" fill="url(#paint15_linear_2916_3910)"/>
<mask id="mask0_2916_3910" style="mask-type:alpha" maskUnits="userSpaceOnUse" x="60" y="74" width="38" height="25">
<path d="M94.305 79.4602L64.8035 74.2584C62.5921 73.8685 60.6279 75.4562 60.7819 77.5066L61.1503 89.4722C61.2621 90.9533 62.4709 92.203 64.068 92.4845L89.7836 98.7544L96.9792 83.8946C97.826 82.0153 96.5216 79.8512 94.305 79.4602Z" fill="url(#paint16_linear_2916_3910)"/>
</mask>
<g mask="url(#mask0_2916_3910)">
<path d="M80.031 87.3507C80.1589 86.6731 80.8121 86.226 81.49 86.351C82.1676 86.4764 82.6132 87.1271 82.4853 87.8043L80.7966 96.7365C80.6687 97.4137 80.0154 97.8612 79.3379 97.7358C78.66 97.6108 78.2143 96.9601 78.3422 96.2829L80.031 87.3507Z" fill="#A259FF"/>
<path d="M102.069 81.5409C102.635 81.6391 103.016 82.1779 102.92 82.7442L102.851 83.1543C102.755 83.7206 102.218 84.1 101.652 84.0018L60.4027 76.8377C59.8368 76.7391 59.4559 76.2004 59.5519 75.6344L59.6214 75.2243C59.7174 74.658 60.254 74.2786 60.8198 74.3768L102.069 81.5409Z" fill="#A259FF"/>
<path d="M86.9724 88.6043C87.1003 87.9271 87.7535 87.4797 88.4311 87.605C89.109 87.7304 89.5546 88.3811 89.4264 89.0583L87.738 97.9905C87.6101 98.6677 86.9568 99.1152 86.2789 98.9898C85.6014 98.8648 85.1557 98.2141 85.2836 97.5369L86.9724 88.6043Z" fill="#A259FF"/>
<path d="M73.0896 86.0958C73.2175 85.4186 73.8707 84.9711 74.5483 85.0961C75.2262 85.2215 75.6718 85.8722 75.5436 86.5494L73.8552 95.4816C73.7273 96.1588 73.074 96.6063 72.3961 96.4813C71.7186 96.3559 71.2729 95.7052 71.4008 95.028L73.0896 86.0958Z" fill="#A259FF"/>
<path d="M66.0679 84.8575C66.1959 84.1803 66.8491 83.7329 67.5269 83.8579C68.2046 83.9832 68.6502 84.6339 68.5222 85.3111L66.8336 94.2434C66.7056 94.9205 66.0524 95.368 65.3747 95.243C64.697 95.1176 64.2513 94.4669 64.3794 93.7897L66.0679 84.8575Z" fill="#A259FF"/>
<path d="M59.9719 74.3841C60.1016 73.6486 60.8028 73.1577 61.5381 73.2874L97.5887 79.6439C98.3239 79.7736 98.8148 80.4751 98.6851 81.2102C98.5554 81.9457 97.8543 82.4367 97.1191 82.3069L61.0686 75.9501C60.3333 75.8207 59.8423 75.1193 59.9719 74.3841Z" fill="url(#paint17_linear_2916_3910)"/>
</g>
<path d="M155.232 26.28C152.496 26.28 150.912 27.736 150.912 29.608C150.912 31.368 152.032 32.264 154.976 32.856C156.72 33.208 157.28 33.544 157.28 34.12C157.28 34.92 156.544 35.352 155.184 35.352C153.76 35.352 152.752 35 151.92 33.624L150.608 35.192C151.504 36.472 152.864 37.16 155.264 37.16C157.792 37.16 159.6 35.976 159.6 33.992C159.6 32.232 158.528 31.352 155.68 30.824C153.824 30.488 153.248 30.104 153.248 29.4C153.248 28.648 153.92 28.088 155.248 28.088C156.672 28.088 157.552 28.664 158.096 29.8L159.616 28.312C158.544 26.904 157.2 26.28 155.232 26.28ZM166.585 35.048C166.249 35.336 165.881 35.496 165.353 35.496C164.665 35.496 164.249 35.16 164.249 34.392V30.632H166.841V29H164.249V26.552L162.057 27.16V29H160.601V30.632H162.057V34.744C162.057 36.504 163.145 37.16 164.729 37.16C165.577 37.16 166.409 36.92 166.921 36.504L166.585 35.048ZM175.683 35.672C175.267 35.672 175.091 35.48 175.091 35.064V31.784C175.091 29.8 173.683 28.84 171.459 28.84C169.507 28.84 168.307 29.704 167.971 31.064L169.715 31.8C169.955 30.792 170.627 30.44 171.555 30.44C172.419 30.44 172.915 30.984 172.915 31.832V32.216L170.995 32.584C168.851 32.984 167.875 33.864 167.875 35.112C167.875 36.456 168.835 37.16 170.355 37.16C171.699 37.16 172.707 36.744 173.187 35.96C173.411 36.824 174.067 37.16 175.027 37.16C175.427 37.16 175.779 37.08 176.067 36.936L176.227 35.608C176.067 35.656 175.875 35.672 175.683 35.672ZM171.043 35.672C170.467 35.672 170.131 35.4 170.131 34.888C170.131 34.36 170.499 34.104 171.203 33.944L172.915 33.56V34.392C172.915 35.24 171.875 35.672 171.043 35.672ZM182.086 28.84C180.838 28.84 180.022 29.464 179.606 30.568L179.462 29H177.558V37H179.75V32.856C179.75 31.4 180.71 30.696 181.67 30.696C182.086 30.696 182.454 30.792 182.678 30.936L182.95 29.016C182.758 28.904 182.438 28.84 182.086 28.84ZM189.163 35.048C188.827 35.336 188.459 35.496 187.931 35.496C187.243 35.496 186.827 35.16 186.827 34.392V30.632H189.419V29H186.827V26.552L184.635 27.16V29H183.179V30.632H184.635V34.744C184.635 36.504 185.723 37.16 187.307 37.16C188.155 37.16 188.987 36.92 189.499 36.504L189.163 35.048ZM198.193 35.224V32.536H202.689V30.84H198.193V28.216H203.905V26.44H195.985V37H204.129V35.224H198.193ZM213.198 35.672C212.782 35.672 212.606 35.48 212.606 35.064V31.784C212.606 29.8 211.198 28.84 208.974 28.84C207.022 28.84 205.822 29.704 205.486 31.064L207.23 31.8C207.47 30.792 208.142 30.44 209.07 30.44C209.934 30.44 210.43 30.984 210.43 31.832V32.216L208.51 32.584C206.366 32.984 205.39 33.864 205.39 35.112C205.39 36.456 206.35 37.16 207.87 37.16C209.214 37.16 210.222 36.744 210.702 35.96C210.926 36.824 211.582 37.16 212.542 37.16C212.942 37.16 213.294 37.08 213.582 36.936L213.742 35.608C213.582 35.656 213.39 35.672 213.198 35.672ZM208.558 35.672C207.982 35.672 207.646 35.4 207.646 34.888C207.646 34.36 208.014 34.104 208.718 33.944L210.43 33.56V34.392C210.43 35.24 209.39 35.672 208.558 35.672ZM219.602 28.84C218.354 28.84 217.538 29.464 217.122 30.568L216.978 29H215.074V37H217.266V32.856C217.266 31.4 218.226 30.696 219.186 30.696C219.602 30.696 219.97 30.792 220.194 30.936L220.466 29.016C220.274 28.904 219.954 28.84 219.602 28.84ZM226.592 28.84C225.392 28.84 224.4 29.352 223.872 30.424L223.792 29H221.824V37H224.016V32.776C224.016 31.176 224.928 30.568 225.856 30.568C226.688 30.568 227.28 31.016 227.28 32.392V37H229.472V31.752C229.472 29.816 228.256 28.84 226.592 28.84ZM232.834 27.848C233.746 27.848 234.194 27.464 234.194 26.68C234.194 25.896 233.746 25.496 232.834 25.496C231.922 25.496 231.474 25.896 231.474 26.68C231.474 27.464 231.922 27.848 232.834 27.848ZM233.922 29H231.73V37H233.922V29ZM241.014 28.84C239.814 28.84 238.822 29.352 238.294 30.424L238.214 29H236.246V37H238.438V32.776C238.438 31.176 239.35 30.568 240.278 30.568C241.11 30.568 241.702 31.016 241.702 32.392V37H243.894V31.752C243.894 29.816 242.678 28.84 241.014 28.84ZM251.016 35.496H248.312C247.752 35.496 247.4 35.272 247.4 34.84C247.4 34.472 247.576 34.232 248.04 34.12C248.472 34.216 248.952 34.264 249.48 34.264C251.752 34.264 253.144 33.224 253.144 31.56C253.144 30.616 252.712 29.88 251.928 29.416C252.168 28.888 252.792 28.568 253.8 28.664L253.512 27.096C252.072 27.032 251.336 27.864 251.08 29.048C250.616 28.904 250.072 28.84 249.48 28.84C247.208 28.84 245.8 29.88 245.8 31.56C245.8 32.52 246.232 33.272 247.064 33.736C246.296 34.008 245.784 34.552 245.784 35.352C245.784 36.136 246.312 36.664 246.968 36.952C245.992 37.192 245.512 37.768 245.512 38.472C245.512 39.64 246.696 40.44 249.448 40.44C251.96 40.44 253.752 39.464 253.752 37.72C253.752 36.28 252.744 35.496 251.016 35.496ZM249.48 30.216C250.328 30.216 250.936 30.744 250.936 31.544C250.936 32.36 250.328 32.888 249.48 32.888C248.632 32.888 248.008 32.36 248.008 31.544C248.008 30.744 248.632 30.216 249.48 30.216ZM249.624 38.936C247.992 38.936 247.256 38.568 247.256 37.992C247.256 37.528 247.656 37.272 248.584 37.272H250.76C251.672 37.272 251.96 37.528 251.96 37.944C251.96 38.488 251.176 38.936 249.624 38.936Z" fill="white"/>
<path d="M157.68 63.972L156.72 63.612C156.372 64.68 155.544 65.22 154.488 65.22C152.844 65.22 151.824 64.032 151.824 62.04C151.824 60.036 152.916 58.86 154.536 58.86C155.592 58.86 156.24 59.34 156.588 60.252L157.536 59.808C157.032 58.608 156 57.96 154.464 57.96C152.256 57.96 150.816 59.532 150.816 62.04C150.816 64.548 152.232 66.12 154.488 66.12C155.976 66.12 157.176 65.328 157.68 63.972ZM162.259 59.88C161.443 59.88 160.723 60.18 160.303 60.9V57.24H159.343V66H160.303V62.82C160.303 61.284 161.287 60.72 162.163 60.72C162.991 60.72 163.639 61.164 163.639 62.496V66H164.599V62.16C164.599 60.612 163.543 59.88 162.259 59.88ZM169.304 59.88C167.492 59.88 166.4 61.056 166.4 63C166.4 64.944 167.492 66.12 169.304 66.12C171.116 66.12 172.208 64.944 172.208 63C172.208 61.056 171.116 59.88 169.304 59.88ZM169.304 60.708C170.516 60.708 171.248 61.572 171.248 63C171.248 64.428 170.516 65.292 169.304 65.292C168.092 65.292 167.36 64.428 167.36 63C167.36 61.572 168.092 60.708 169.304 60.708ZM176.605 59.88C174.793 59.88 173.701 61.056 173.701 63C173.701 64.944 174.793 66.12 176.605 66.12C178.417 66.12 179.509 64.944 179.509 63C179.509 61.056 178.417 59.88 176.605 59.88ZM176.605 60.708C177.817 60.708 178.549 61.572 178.549 63C178.549 64.428 177.817 65.292 176.605 65.292C175.393 65.292 174.661 64.428 174.661 63C174.661 61.572 175.393 60.708 176.605 60.708ZM183.414 66.12C184.95 66.12 185.922 65.388 185.922 64.344C185.922 63.36 185.322 62.856 183.642 62.58C182.418 62.376 182.022 62.112 182.022 61.596C182.022 61.152 182.622 60.72 183.426 60.72C184.182 60.72 184.722 61.008 184.986 61.8L185.802 61.32C185.466 60.336 184.71 59.88 183.426 59.88C181.962 59.88 181.062 60.708 181.062 61.68C181.062 62.688 181.686 63.156 183.39 63.468C184.59 63.684 184.962 63.948 184.962 64.392C184.962 64.884 184.494 65.28 183.51 65.28C182.646 65.28 181.902 64.956 181.614 64.224L180.834 64.764C181.29 65.688 182.31 66.12 183.414 66.12ZM192.85 62.688C192.85 61.14 191.902 59.88 190.162 59.88C188.35 59.88 187.33 61.056 187.33 63C187.33 64.944 188.422 66.12 190.234 66.12C191.53 66.12 192.274 65.628 192.73 64.812L191.926 64.392C191.71 64.968 191.11 65.28 190.234 65.28C189.13 65.28 188.398 64.572 188.278 63.36H192.802C192.826 63.192 192.85 62.964 192.85 62.688ZM190.162 60.72C191.182 60.72 191.794 61.404 191.926 62.508H188.29C188.434 61.38 189.094 60.72 190.162 60.72ZM201.716 59.88C200.816 59.88 200.096 60.312 199.724 60.936V57.24H198.764V66H199.604L199.664 64.956C200.012 65.64 200.768 66.12 201.716 66.12C203.384 66.12 204.452 64.956 204.452 63C204.452 61.044 203.384 59.88 201.716 59.88ZM201.608 65.28C200.468 65.28 199.724 64.428 199.724 63.072V62.928C199.724 61.572 200.468 60.72 201.608 60.72C202.784 60.72 203.492 61.608 203.492 63C203.492 64.392 202.784 65.28 201.608 65.28ZM211.471 62.688C211.471 61.14 210.523 59.88 208.783 59.88C206.971 59.88 205.951 61.056 205.951 63C205.951 64.944 207.043 66.12 208.855 66.12C210.151 66.12 210.895 65.628 211.351 64.812L210.547 64.392C210.331 64.968 209.731 65.28 208.855 65.28C207.751 65.28 207.019 64.572 206.899 63.36H211.423C211.447 63.192 211.471 62.964 211.471 62.688ZM208.783 60.72C209.803 60.72 210.415 61.404 210.547 62.508H206.911C207.055 61.38 207.715 60.72 208.783 60.72ZM216.456 64.776C216.18 65.052 215.868 65.22 215.436 65.22C214.908 65.22 214.536 64.932 214.536 64.344V60.828H216.756V60H214.536V58.296L213.576 58.56V60H212.376V60.828H213.576V64.512C213.588 65.676 214.356 66.12 215.244 66.12C215.904 66.12 216.42 65.916 216.792 65.58L216.456 64.776ZM225.791 60L224.279 64.884L222.647 60H221.687L220.055 64.884L218.543 60H217.475L219.563 66H220.523L222.119 61.224L223.811 66H224.771L226.859 60H225.791ZM233.385 62.688C233.385 61.14 232.437 59.88 230.697 59.88C228.885 59.88 227.865 61.056 227.865 63C227.865 64.944 228.957 66.12 230.769 66.12C232.065 66.12 232.809 65.628 233.265 64.812L232.461 64.392C232.245 64.968 231.645 65.28 230.769 65.28C229.665 65.28 228.933 64.572 228.813 63.36H233.337C233.361 63.192 233.385 62.964 233.385 62.688ZM230.697 60.72C231.717 60.72 232.329 61.404 232.461 62.508H228.825C228.969 61.38 229.629 60.72 230.697 60.72ZM240.358 62.688C240.358 61.14 239.41 59.88 237.67 59.88C235.858 59.88 234.838 61.056 234.838 63C234.838 64.944 235.93 66.12 237.742 66.12C239.038 66.12 239.782 65.628 240.238 64.812L239.434 64.392C239.218 64.968 238.618 65.28 237.742 65.28C236.638 65.28 235.906 64.572 235.786 63.36H240.31C240.334 63.192 240.358 62.964 240.358 62.688ZM237.67 60.72C238.69 60.72 239.302 61.404 239.434 62.508H235.798C235.942 61.38 236.602 60.72 237.67 60.72ZM245.098 59.88C244.27 59.88 243.502 60.18 243.082 60.936L243.022 60H242.182V66H243.142V62.808C243.142 61.272 244.126 60.72 245.002 60.72C245.83 60.72 246.478 61.164 246.478 62.496V66H247.438V62.16C247.438 60.612 246.382 59.88 245.098 59.88ZM258.622 65.304C258.286 65.304 258.166 65.16 258.166 64.872V61.92C258.166 60.528 257.17 59.88 255.802 59.88C254.638 59.88 253.69 60.456 253.378 61.344L254.086 61.86C254.41 61.104 255.01 60.72 255.802 60.72C256.702 60.72 257.206 61.248 257.206 62.04V62.376L255.61 62.64C254.062 62.904 253.27 63.612 253.27 64.512C253.27 65.592 254.182 66.12 255.31 66.12C256.078 66.12 256.858 65.796 257.242 65.232C257.35 65.904 257.734 66.12 258.322 66.12C258.622 66.12 258.874 66.06 259.042 66L259.102 65.244C258.958 65.28 258.778 65.304 258.622 65.304ZM255.358 65.28C254.674 65.28 254.266 65.016 254.266 64.512C254.266 63.948 254.806 63.6 255.862 63.408L257.206 63.156V63.984C257.206 64.776 256.318 65.28 255.358 65.28ZM264.735 60V63.264C264.735 64.68 263.835 65.28 262.815 65.28C261.951 65.28 261.399 64.908 261.399 63.672V60H260.439V63.924C260.439 65.508 261.459 66.12 262.647 66.12C263.607 66.12 264.375 65.808 264.795 65.088L264.855 66H265.695V60H264.735ZM270.461 59.88C268.649 59.88 267.557 61.056 267.557 63C267.557 64.944 268.649 66.12 270.461 66.12C271.733 66.12 272.597 65.46 273.005 64.356L272.117 64.044C271.937 64.836 271.373 65.28 270.437 65.28C269.237 65.28 268.517 64.428 268.517 63C268.517 61.572 269.237 60.72 270.437 60.72C271.265 60.72 271.781 61.14 272.033 61.908L272.945 61.476C272.501 60.492 271.697 59.88 270.461 59.88ZM278.038 64.776C277.762 65.052 277.45 65.22 277.018 65.22C276.49 65.22 276.118 64.932 276.118 64.344V60.828H278.338V60H276.118V58.296L275.158 58.56V60H273.958V60.828H275.158V64.512C275.17 65.676 275.938 66.12 276.826 66.12C277.486 66.12 278.002 65.916 278.374 65.58L278.038 64.776ZM280.209 58.848C280.641 58.848 280.929 58.56 280.929 58.128C280.929 57.696 280.641 57.408 280.209 57.408C279.777 57.408 279.489 57.696 279.489 58.128C279.489 58.56 279.777 58.848 280.209 58.848ZM280.689 60H279.729V66H280.689V60ZM285.449 59.88C283.637 59.88 282.545 61.056 282.545 63C282.545 64.944 283.637 66.12 285.449 66.12C287.261 66.12 288.353 64.944 288.353 63C288.353 61.056 287.261 59.88 285.449 59.88ZM285.449 60.708C286.661 60.708 287.393 61.572 287.393 63C287.393 64.428 286.661 65.292 285.449 65.292C284.237 65.292 283.505 64.428 283.505 63C283.505 61.572 284.237 60.708 285.449 60.708ZM293.134 59.88C292.306 59.88 291.538 60.18 291.118 60.936L291.058 60H290.218V66H291.178V62.808C291.178 61.272 292.162 60.72 293.038 60.72C293.866 60.72 294.514 61.164 294.514 62.496V66H295.474V62.16C295.474 60.612 294.418 59.88 293.134 59.88ZM299.687 66.12C301.223 66.12 302.195 65.388 302.195 64.344C302.195 63.36 301.595 62.856 299.915 62.58C298.691 62.376 298.295 62.112 298.295 61.596C298.295 61.152 298.895 60.72 299.699 60.72C300.455 60.72 300.995 61.008 301.259 61.8L302.075 61.32C301.739 60.336 300.983 59.88 299.699 59.88C298.235 59.88 297.335 60.708 297.335 61.68C297.335 62.688 297.959 63.156 299.663 63.468C300.863 63.684 301.235 63.948 301.235 64.392C301.235 64.884 300.767 65.28 299.783 65.28C298.919 65.28 298.175 64.956 297.887 64.224L297.107 64.764C297.563 65.688 298.583 66.12 299.687 66.12ZM156.036 82.304C155.7 82.304 155.58 82.16 155.58 81.872V78.92C155.58 77.528 154.584 76.88 153.216 76.88C152.052 76.88 151.104 77.456 150.792 78.344L151.5 78.86C151.824 78.104 152.424 77.72 153.216 77.72C154.116 77.72 154.62 78.248 154.62 79.04V79.376L153.024 79.64C151.476 79.904 150.684 80.612 150.684 81.512C150.684 82.592 151.596 83.12 152.724 83.12C153.492 83.12 154.272 82.796 154.656 82.232C154.764 82.904 155.148 83.12 155.736 83.12C156.036 83.12 156.288 83.06 156.456 83L156.516 82.244C156.372 82.28 156.192 82.304 156.036 82.304ZM152.772 82.28C152.088 82.28 151.68 82.016 151.68 81.512C151.68 80.948 152.22 80.6 153.276 80.408L154.62 80.156V80.984C154.62 81.776 153.732 82.28 152.772 82.28ZM160.829 76.88C160.001 76.88 159.233 77.18 158.813 77.936L158.753 77H157.913V83H158.873V79.808C158.873 78.272 159.857 77.72 160.733 77.72C161.561 77.72 162.209 78.164 162.209 79.496V83H163.169V79.16C163.169 77.612 162.113 76.88 160.829 76.88ZM169.711 74.24V77.936C169.339 77.312 168.619 76.88 167.719 76.88C166.051 76.88 164.983 78.044 164.983 80C164.983 81.956 166.051 83.12 167.719 83.12C168.667 83.12 169.423 82.64 169.771 81.956L169.831 83H170.671V74.24H169.711ZM167.827 82.28C166.651 82.28 165.943 81.392 165.943 80C165.943 78.608 166.651 77.72 167.827 77.72C168.967 77.72 169.711 78.572 169.711 79.928V80.072C169.711 81.428 168.967 82.28 167.827 82.28ZM179.288 75.056C179.564 75.056 179.78 75.116 179.972 75.236L180.224 74.456C180.008 74.276 179.624 74.18 179.204 74.18C177.884 74.18 177.236 74.924 177.236 75.992V77H176.036V77.828H177.236V83H178.196V77.828H180.2V77H178.196V76.088C178.196 75.368 178.592 75.056 179.288 75.056ZM181.964 74.408C181.532 74.408 181.244 74.696 181.244 75.128C181.244 75.56 181.532 75.848 181.964 75.848C182.396 75.848 182.684 75.56 182.684 75.128C182.684 74.696 182.396 74.408 181.964 74.408ZM181.484 83H182.444V77H181.484V83ZM189.562 83L187.355 79.94L189.527 77H188.399L186.839 79.22L185.255 77H184.055L186.215 79.976L183.911 83H185.027L186.73 80.684L188.387 83H189.562ZM195.991 79.688C195.991 78.14 195.043 76.88 193.303 76.88C191.491 76.88 190.471 78.056 190.471 80C190.471 81.944 191.563 83.12 193.375 83.12C194.671 83.12 195.415 82.628 195.871 81.812L195.067 81.392C194.851 81.968 194.251 82.28 193.375 82.28C192.271 82.28 191.539 81.572 191.419 80.36H195.943C195.967 80.192 195.991 79.964 195.991 79.688ZM193.303 77.72C194.323 77.72 194.935 78.404 195.067 79.508H191.431C191.575 78.38 192.235 77.72 193.303 77.72ZM202.183 74.24V77.936C201.811 77.312 201.091 76.88 200.191 76.88C198.523 76.88 197.455 78.044 197.455 80C197.455 81.956 198.523 83.12 200.191 83.12C201.139 83.12 201.895 82.64 202.243 81.956L202.303 83H203.143V74.24H202.183ZM200.299 82.28C199.123 82.28 198.415 81.392 198.415 80C198.415 78.608 199.123 77.72 200.299 77.72C201.439 77.72 202.183 78.572 202.183 79.928V80.072C202.183 81.428 201.439 82.28 200.299 82.28ZM209.298 79.364H205.338V80.36H209.298V79.364ZM214.443 76.88C213.495 76.88 212.739 77.36 212.391 78.044L212.331 77H211.491V85.52H212.451V82.064C212.823 82.688 213.543 83.12 214.443 83.12C216.111 83.12 217.179 81.956 217.179 80C217.179 78.044 216.111 76.88 214.443 76.88ZM214.335 82.28C213.195 82.28 212.451 81.428 212.451 80.072V79.928C212.451 78.572 213.195 77.72 214.335 77.72C215.511 77.72 216.219 78.608 216.219 80C216.219 81.392 215.511 82.28 214.335 82.28ZM221.882 76.88C220.946 76.88 220.298 77.252 219.962 77.984L219.83 77H219.05V83H220.01V79.76C220.01 78.416 220.874 77.78 221.594 77.78C221.906 77.78 222.17 77.84 222.35 77.936L222.542 77C222.362 76.904 222.086 76.88 221.882 76.88ZM224.428 75.848C224.86 75.848 225.148 75.56 225.148 75.128C225.148 74.696 224.86 74.408 224.428 74.408C223.996 74.408 223.708 74.696 223.708 75.128C223.708 75.56 223.996 75.848 224.428 75.848ZM224.908 77H223.948V83H224.908V77ZM229.668 76.88C227.856 76.88 226.764 78.056 226.764 80C226.764 81.944 227.856 83.12 229.668 83.12C230.94 83.12 231.804 82.46 232.212 81.356L231.324 81.044C231.144 81.836 230.58 82.28 229.644 82.28C228.444 82.28 227.724 81.428 227.724 80C227.724 78.572 228.444 77.72 229.644 77.72C230.472 77.72 230.988 78.14 231.24 78.908L232.152 78.476C231.708 77.492 230.904 76.88 229.668 76.88ZM239.057 79.688C239.057 78.14 238.109 76.88 236.369 76.88C234.557 76.88 233.537 78.056 233.537 80C233.537 81.944 234.629 83.12 236.441 83.12C237.737 83.12 238.481 82.628 238.937 81.812L238.133 81.392C237.917 81.968 237.317 82.28 236.441 82.28C235.337 82.28 234.605 81.572 234.485 80.36H239.009C239.033 80.192 239.057 79.964 239.057 79.688ZM236.369 77.72C237.389 77.72 238.001 78.404 238.133 79.508H234.497C234.641 78.38 235.301 77.72 236.369 77.72ZM245.883 74.24H244.923V81.512C244.923 82.604 245.391 83.12 246.363 83.12C246.675 83.12 246.999 83.06 247.251 82.952L247.407 82.028C247.059 82.16 246.855 82.196 246.531 82.196C246.039 82.196 245.883 82.004 245.883 81.392V74.24ZM249.119 75.848C249.551 75.848 249.839 75.56 249.839 75.128C249.839 74.696 249.551 74.408 249.119 74.408C248.687 74.408 248.399 74.696 248.399 75.128C248.399 75.56 248.687 75.848 249.119 75.848ZM249.599 77H248.639V83H249.599V77ZM253.867 83.12C255.403 83.12 256.375 82.388 256.375 81.344C256.375 80.36 255.775 79.856 254.095 79.58C252.871 79.376 252.475 79.112 252.475 78.596C252.475 78.152 253.075 77.72 253.879 77.72C254.635 77.72 255.175 78.008 255.439 78.8L256.255 78.32C255.919 77.336 255.163 76.88 253.879 76.88C252.415 76.88 251.515 77.708 251.515 78.68C251.515 79.688 252.139 80.156 253.843 80.468C255.043 80.684 255.415 80.948 255.415 81.392C255.415 81.884 254.947 82.28 253.963 82.28C253.099 82.28 252.355 81.956 252.067 81.224L251.287 81.764C251.743 82.688 252.763 83.12 253.867 83.12ZM261.491 81.776C261.215 82.052 260.903 82.22 260.471 82.22C259.943 82.22 259.571 81.932 259.571 81.344V77.828H261.791V77H259.571V75.296L258.611 75.56V77H257.411V77.828H258.611V81.512C258.623 82.676 259.391 83.12 260.279 83.12C260.939 83.12 261.455 82.916 261.827 82.58L261.491 81.776ZM263.662 75.848C264.094 75.848 264.382 75.56 264.382 75.128C264.382 74.696 264.094 74.408 263.662 74.408C263.23 74.408 262.942 74.696 262.942 75.128C262.942 75.56 263.23 75.848 263.662 75.848ZM264.142 77H263.182V83H264.142V77ZM269.286 76.88C268.458 76.88 267.69 77.18 267.27 77.936L267.21 77H266.37V83H267.33V79.808C267.33 78.272 268.314 77.72 269.19 77.72C270.018 77.72 270.666 78.164 270.666 79.496V83H271.626V79.16C271.626 77.612 270.57 76.88 269.286 76.88ZM277.148 82.232H275.156C274.688 82.232 274.364 82.004 274.364 81.584C274.364 81.176 274.556 80.936 275.036 80.828C275.3 80.9 275.612 80.936 275.96 80.936C277.4 80.936 278.42 80.096 278.42 78.908C278.42 78.284 278.144 77.756 277.664 77.396C277.832 76.964 278.288 76.736 279.092 76.736L278.876 75.896C277.976 75.896 277.412 76.292 277.184 77.12C276.824 76.964 276.416 76.88 275.96 76.88C274.52 76.88 273.5 77.72 273.5 78.908C273.5 79.604 273.8 80.192 274.376 80.552C273.848 80.732 273.476 81.104 273.476 81.728C273.476 82.256 273.836 82.616 274.292 82.832C273.632 83.012 273.236 83.444 273.236 83.996C273.236 84.896 274.1 85.58 275.996 85.58C277.616 85.58 278.96 84.848 278.96 83.66C278.96 82.796 278.288 82.232 277.148 82.232ZM275.96 77.66C276.788 77.66 277.424 78.164 277.424 78.908C277.424 79.652 276.788 80.156 275.96 80.156C275.132 80.156 274.496 79.652 274.496 78.908C274.496 78.164 275.132 77.66 275.96 77.66ZM276.104 84.776C274.784 84.776 274.124 84.392 274.124 83.804C274.124 83.348 274.52 83.06 275.276 83.06H276.884C277.784 83.06 278.072 83.336 278.072 83.768C278.072 84.296 277.376 84.776 276.104 84.776ZM282.426 83.12C283.962 83.12 284.934 82.388 284.934 81.344C284.934 80.36 284.334 79.856 282.654 79.58C281.43 79.376 281.034 79.112 281.034 78.596C281.034 78.152 281.634 77.72 282.438 77.72C283.194 77.72 283.734 78.008 283.998 78.8L284.814 78.32C284.478 77.336 283.722 76.88 282.438 76.88C280.974 76.88 280.074 77.708 280.074 78.68C280.074 79.688 280.698 80.156 282.402 80.468C283.602 80.684 283.974 80.948 283.974 81.392C283.974 81.884 283.506 82.28 282.522 82.28C281.658 82.28 280.914 81.956 280.626 81.224L279.846 81.764C280.302 82.688 281.322 83.12 282.426 83.12ZM287.194 81.56C286.726 81.56 286.414 81.872 286.414 82.34C286.414 82.808 286.726 83.12 287.194 83.12C287.662 83.12 287.974 82.808 287.974 82.34C287.974 81.872 287.662 81.56 287.194 81.56ZM153.84 91.96C152.004 91.96 150.888 93.04 150.888 94.312C150.888 95.524 151.656 96.172 153.792 96.544C155.46 96.832 155.976 97.228 155.976 97.912C155.976 98.764 155.16 99.22 153.936 99.22C152.64 99.22 151.824 98.644 151.404 97.732L150.576 98.404C151.128 99.388 152.232 100.12 153.912 100.12C155.76 100.12 156.972 99.22 156.972 97.864C156.972 96.64 156.216 95.968 154.092 95.608C152.424 95.32 151.896 94.948 151.896 94.204C151.896 93.448 152.592 92.86 153.852 92.86C155.016 92.86 155.592 93.268 156.072 94.312L156.9 93.64C156.288 92.536 155.292 91.96 153.84 91.96ZM162.14 98.776C161.864 99.052 161.552 99.22 161.12 99.22C160.592 99.22 160.22 98.932 160.22 98.344V94.828H162.44V94H160.22V92.296L159.26 92.56V94H158.06V94.828H159.26V98.512C159.271 99.676 160.04 100.12 160.928 100.12C161.588 100.12 162.104 99.916 162.476 99.58L162.14 98.776ZM168.751 99.304C168.415 99.304 168.295 99.16 168.295 98.872V95.92C168.295 94.528 167.299 93.88 165.931 93.88C164.767 93.88 163.819 94.456 163.507 95.344L164.215 95.86C164.539 95.104 165.139 94.72 165.931 94.72C166.831 94.72 167.335 95.248 167.335 96.04V96.376L165.739 96.64C164.191 96.904 163.399 97.612 163.399 98.512C163.399 99.592 164.311 100.12 165.439 100.12C166.207 100.12 166.987 99.796 167.371 99.232C167.479 99.904 167.863 100.12 168.451 100.12C168.751 100.12 169.003 100.06 169.171 100L169.231 99.244C169.087 99.28 168.907 99.304 168.751 99.304ZM165.487 99.28C164.803 99.28 164.395 99.016 164.395 98.512C164.395 97.948 164.935 97.6 165.991 97.408L167.335 97.156V97.984C167.335 98.776 166.447 99.28 165.487 99.28ZM173.46 93.88C172.524 93.88 171.876 94.252 171.54 94.984L171.408 94H170.628V100H171.588V96.76C171.588 95.416 172.452 94.78 173.172 94.78C173.484 94.78 173.748 94.84 173.928 94.936L174.12 94C173.94 93.904 173.664 93.88 173.46 93.88ZM178.499 98.776C178.223 99.052 177.911 99.22 177.479 99.22C176.951 99.22 176.579 98.932 176.579 98.344V94.828H178.799V94H176.579V92.296L175.619 92.56V94H174.419V94.828H175.619V98.512C175.631 99.676 176.399 100.12 177.287 100.12C177.947 100.12 178.463 99.916 178.835 99.58L178.499 98.776ZM189.428 96.688C189.428 95.14 188.48 93.88 186.74 93.88C184.928 93.88 183.908 95.056 183.908 97C183.908 98.944 185 100.12 186.812 100.12C188.108 100.12 188.852 99.628 189.308 98.812L188.504 98.392C188.288 98.968 187.688 99.28 186.812 99.28C185.708 99.28 184.976 98.572 184.856 97.36H189.38C189.404 97.192 189.428 96.964 189.428 96.688ZM186.74 94.72C187.76 94.72 188.372 95.404 188.504 96.508H184.868C185.012 95.38 185.672 94.72 186.74 94.72ZM196.173 99.304C195.837 99.304 195.717 99.16 195.717 98.872V95.92C195.717 94.528 194.721 93.88 193.353 93.88C192.189 93.88 191.241 94.456 190.929 95.344L191.637 95.86C191.961 95.104 192.561 94.72 193.353 94.72C194.253 94.72 194.757 95.248 194.757 96.04V96.376L193.161 96.64C191.613 96.904 190.821 97.612 190.821 98.512C190.821 99.592 191.733 100.12 192.861 100.12C193.629 100.12 194.409 99.796 194.793 99.232C194.901 99.904 195.285 100.12 195.873 100.12C196.173 100.12 196.425 100.06 196.593 100L196.653 99.244C196.509 99.28 196.329 99.304 196.173 99.304ZM192.909 99.28C192.225 99.28 191.817 99.016 191.817 98.512C191.817 97.948 192.357 97.6 193.413 97.408L194.757 97.156V97.984C194.757 98.776 193.869 99.28 192.909 99.28ZM200.882 93.88C199.946 93.88 199.298 94.252 198.962 94.984L198.83 94H198.05V100H199.01V96.76C199.01 95.416 199.874 94.78 200.594 94.78C200.906 94.78 201.17 94.84 201.35 94.936L201.542 94C201.362 93.904 201.086 93.88 200.882 93.88ZM205.864 93.88C205.036 93.88 204.268 94.18 203.848 94.936L203.788 94H202.948V100H203.908V96.808C203.908 95.272 204.892 94.72 205.768 94.72C206.596 94.72 207.244 95.164 207.244 96.496V100H208.204V96.16C208.204 94.612 207.148 93.88 205.864 93.88ZM210.858 92.848C211.29 92.848 211.578 92.56 211.578 92.128C211.578 91.696 211.29 91.408 210.858 91.408C210.426 91.408 210.138 91.696 210.138 92.128C210.138 92.56 210.426 92.848 210.858 92.848ZM211.338 94H210.378V100H211.338V94ZM216.481 93.88C215.653 93.88 214.885 94.18 214.465 94.936L214.405 94H213.565V100H214.525V96.808C214.525 95.272 215.509 94.72 216.385 94.72C217.213 94.72 217.861 95.164 217.861 96.496V100H218.821V96.16C218.821 94.612 217.765 93.88 216.481 93.88ZM224.343 99.232H222.351C221.883 99.232 221.559 99.004 221.559 98.584C221.559 98.176 221.751 97.936 222.231 97.828C222.495 97.9 222.807 97.936 223.155 97.936C224.595 97.936 225.615 97.096 225.615 95.908C225.615 95.284 225.339 94.756 224.859 94.396C225.027 93.964 225.483 93.736 226.287 93.736L226.071 92.896C225.171 92.896 224.607 93.292 224.379 94.12C224.019 93.964 223.611 93.88 223.155 93.88C221.715 93.88 220.695 94.72 220.695 95.908C220.695 96.604 220.995 97.192 221.571 97.552C221.043 97.732 220.671 98.104 220.671 98.728C220.671 99.256 221.031 99.616 221.487 99.832C220.827 100.012 220.431 100.444 220.431 100.996C220.431 101.896 221.295 102.58 223.191 102.58C224.811 102.58 226.155 101.848 226.155 100.66C226.155 99.796 225.483 99.232 224.343 99.232ZM223.155 94.66C223.983 94.66 224.619 95.164 224.619 95.908C224.619 96.652 223.983 97.156 223.155 97.156C222.327 97.156 221.691 96.652 221.691 95.908C221.691 95.164 222.327 94.66 223.155 94.66ZM223.299 101.776C221.979 101.776 221.319 101.392 221.319 100.804C221.319 100.348 221.715 100.06 222.471 100.06H224.079C224.979 100.06 225.267 100.336 225.267 100.768C225.267 101.296 224.571 101.776 223.299 101.776ZM234.623 93.88C233.723 93.88 233.003 94.312 232.631 94.936V91.24H231.671V100H232.511L232.571 98.956C232.919 99.64 233.675 100.12 234.623 100.12C236.291 100.12 237.359 98.956 237.359 97C237.359 95.044 236.291 93.88 234.623 93.88ZM234.515 99.28C233.375 99.28 232.631 98.428 232.631 97.072V96.928C232.631 95.572 233.375 94.72 234.515 94.72C235.691 94.72 236.399 95.608 236.399 97C236.399 98.392 235.691 99.28 234.515 99.28ZM244.154 94H243.122L241.718 97.792L241.286 98.98L240.914 97.912L239.414 94H238.322L240.83 99.988L240.518 100.768C240.218 101.56 239.846 101.74 239.426 101.74C239.09 101.74 238.729 101.644 238.454 101.26L238.118 102.076C238.454 102.436 238.838 102.58 239.438 102.58C240.326 102.58 240.866 102.184 241.334 101.008L244.154 94ZM251.301 100.12C252.837 100.12 253.809 99.388 253.809 98.344C253.809 97.36 253.209 96.856 251.529 96.58C250.305 96.376 249.909 96.112 249.909 95.596C249.909 95.152 250.509 94.72 251.313 94.72C252.069 94.72 252.609 95.008 252.873 95.8L253.689 95.32C253.353 94.336 252.597 93.88 251.313 93.88C249.849 93.88 248.949 94.708 248.949 95.68C248.949 96.688 249.573 97.156 251.277 97.468C252.477 97.684 252.849 97.948 252.849 98.392C252.849 98.884 252.381 99.28 251.397 99.28C250.533 99.28 249.789 98.956 249.501 98.224L248.721 98.764C249.177 99.688 250.197 100.12 251.301 100.12ZM260.737 96.688C260.737 95.14 259.789 93.88 258.049 93.88C256.237 93.88 255.217 95.056 255.217 97C255.217 98.944 256.309 100.12 258.121 100.12C259.417 100.12 260.161 99.628 260.617 98.812L259.813 98.392C259.597 98.968 258.997 99.28 258.121 99.28C257.017 99.28 256.285 98.572 256.165 97.36H260.689C260.713 97.192 260.737 96.964 260.737 96.688ZM258.049 94.72C259.069 94.72 259.681 95.404 259.813 96.508H256.177C256.321 95.38 256.981 94.72 258.049 94.72ZM263.473 91.24H262.513V98.512C262.513 99.604 262.981 100.12 263.953 100.12C264.265 100.12 264.589 100.06 264.841 99.952L264.997 99.028C264.649 99.16 264.445 99.196 264.121 99.196C263.629 99.196 263.473 99.004 263.473 98.392V91.24ZM267.141 91.24H266.181V98.512C266.181 99.604 266.649 100.12 267.621 100.12C267.933 100.12 268.257 100.06 268.509 99.952L268.665 99.028C268.317 99.16 268.113 99.196 267.789 99.196C267.297 99.196 267.141 99.004 267.141 98.392V91.24ZM270.377 92.848C270.809 92.848 271.097 92.56 271.097 92.128C271.097 91.696 270.809 91.408 270.377 91.408C269.945 91.408 269.657 91.696 269.657 92.128C269.657 92.56 269.945 92.848 270.377 92.848ZM270.857 94H269.897V100H270.857V94ZM276.001 93.88C275.173 93.88 274.405 94.18 273.985 94.936L273.925 94H273.085V100H274.045V96.808C274.045 95.272 275.029 94.72 275.905 94.72C276.733 94.72 277.381 95.164 277.381 96.496V100H278.341V96.16C278.341 94.612 277.285 93.88 276.001 93.88ZM283.862 99.232H281.87C281.402 99.232 281.078 99.004 281.078 98.584C281.078 98.176 281.27 97.936 281.75 97.828C282.014 97.9 282.326 97.936 282.674 97.936C284.114 97.936 285.134 97.096 285.134 95.908C285.134 95.284 284.858 94.756 284.378 94.396C284.546 93.964 285.002 93.736 285.806 93.736L285.59 92.896C284.69 92.896 284.126 93.292 283.898 94.12C283.538 93.964 283.13 93.88 282.674 93.88C281.234 93.88 280.214 94.72 280.214 95.908C280.214 96.604 280.514 97.192 281.09 97.552C280.562 97.732 280.19 98.104 280.19 98.728C280.19 99.256 280.55 99.616 281.006 99.832C280.346 100.012 279.95 100.444 279.95 100.996C279.95 101.896 280.814 102.58 282.71 102.58C284.33 102.58 285.674 101.848 285.674 100.66C285.674 99.796 285.002 99.232 283.862 99.232ZM282.674 94.66C283.502 94.66 284.138 95.164 284.138 95.908C284.138 96.652 283.502 97.156 282.674 97.156C281.846 97.156 281.21 96.652 281.21 95.908C281.21 95.164 281.846 94.66 282.674 94.66ZM282.818 101.776C281.498 101.776 280.838 101.392 280.838 100.804C280.838 100.348 281.234 100.06 281.99 100.06H283.598C284.498 100.06 284.786 100.336 284.786 100.768C284.786 101.296 284.09 101.776 282.818 101.776ZM156.216 111H155.184L153.78 114.792L153.348 115.98L152.976 114.912L151.476 111H150.384L152.892 116.988L152.58 117.768C152.28 118.56 151.908 118.74 151.488 118.74C151.152 118.74 150.792 118.644 150.516 118.26L150.18 119.076C150.516 119.436 150.9 119.58 151.5 119.58C152.388 119.58 152.928 119.184 153.396 118.008L156.216 111ZM160.07 110.88C158.258 110.88 157.166 112.056 157.166 114C157.166 115.944 158.258 117.12 160.07 117.12C161.882 117.12 162.974 115.944 162.974 114C162.974 112.056 161.882 110.88 160.07 110.88ZM160.07 111.708C161.282 111.708 162.014 112.572 162.014 114C162.014 115.428 161.282 116.292 160.07 116.292C158.858 116.292 158.126 115.428 158.126 114C158.126 112.572 158.858 111.708 160.07 111.708ZM169.075 111V114.264C169.075 115.68 168.175 116.28 167.155 116.28C166.291 116.28 165.739 115.908 165.739 114.672V111H164.779V114.924C164.779 116.508 165.799 117.12 166.987 117.12C167.947 117.12 168.715 116.808 169.135 116.088L169.195 117H170.035V111H169.075ZM175.1 110.88C174.164 110.88 173.516 111.252 173.18 111.984L173.048 111H172.268V117H173.228V113.76C173.228 112.416 174.092 111.78 174.812 111.78C175.124 111.78 175.388 111.84 175.568 111.936L175.76 111C175.58 110.904 175.304 110.88 175.1 110.88ZM187.371 109.08H186.459V114.672L186.507 115.944H186.495L185.643 114.36L182.343 109.08H181.155V117H182.067V111.408L182.019 110.136H182.031L182.871 111.696L186.183 117H187.371V109.08ZM195.512 109.98V109.08H189.968V117H190.928V113.436H194.504V112.536H190.928V109.98H195.512ZM202.86 109.08H196.38V109.98H199.14V117H200.1V109.98H202.86V109.08ZM205.199 117.12C206.735 117.12 207.707 116.388 207.707 115.344C207.707 114.36 207.107 113.856 205.427 113.58C204.203 113.376 203.807 113.112 203.807 112.596C203.807 112.152 204.407 111.72 205.211 111.72C205.967 111.72 206.507 112.008 206.771 112.8L207.587 112.32C207.251 111.336 206.495 110.88 205.211 110.88C203.747 110.88 202.847 111.708 202.847 112.68C202.847 113.688 203.471 114.156 205.175 114.468C206.375 114.684 206.747 114.948 206.747 115.392C206.747 115.884 206.279 116.28 205.295 116.28C204.431 116.28 203.687 115.956 203.399 115.224L202.619 115.764C203.075 116.688 204.095 117.12 205.199 117.12ZM216.109 110.88C214.297 110.88 213.205 112.056 213.205 114C213.205 115.944 214.297 117.12 216.109 117.12C217.921 117.12 219.013 115.944 219.013 114C219.013 112.056 217.921 110.88 216.109 110.88ZM216.109 111.708C217.321 111.708 218.053 112.572 218.053 114C218.053 115.428 217.321 116.292 216.109 116.292C214.897 116.292 214.165 115.428 214.165 114C214.165 112.572 214.897 111.708 216.109 111.708ZM223.71 110.88C222.774 110.88 222.126 111.252 221.79 111.984L221.658 111H220.878V117H221.838V113.76C221.838 112.416 222.702 111.78 223.422 111.78C223.734 111.78 223.998 111.84 224.178 111.936L224.37 111C224.19 110.904 223.914 110.88 223.71 110.88ZM232.686 115.776C232.41 116.052 232.098 116.22 231.666 116.22C231.138 116.22 230.766 115.932 230.766 115.344V111.828H232.986V111H230.766V109.296L229.806 109.56V111H228.606V111.828H229.806V115.512C229.818 116.676 230.586 117.12 231.474 117.12C232.134 117.12 232.65 116.916 233.022 116.58L232.686 115.776ZM237.21 110.88C236.274 110.88 235.626 111.252 235.29 111.984L235.158 111H234.378V117H235.338V113.76C235.338 112.416 236.202 111.78 236.922 111.78C237.234 111.78 237.498 111.84 237.678 111.936L237.87 111C237.69 110.904 237.414 110.88 237.21 110.88ZM244.032 116.304C243.696 116.304 243.576 116.16 243.576 115.872V112.92C243.576 111.528 242.58 110.88 241.212 110.88C240.048 110.88 239.1 111.456 238.788 112.344L239.496 112.86C239.82 112.104 240.42 111.72 241.212 111.72C242.112 111.72 242.616 112.248 242.616 113.04V113.376L241.02 113.64C239.472 113.904 238.68 114.612 238.68 115.512C238.68 116.592 239.592 117.12 240.72 117.12C241.488 117.12 242.268 116.796 242.652 116.232C242.76 116.904 243.144 117.12 243.732 117.12C244.032 117.12 244.284 117.06 244.452 117L244.512 116.244C244.368 116.28 244.188 116.304 244.032 116.304ZM240.768 116.28C240.084 116.28 239.676 116.016 239.676 115.512C239.676 114.948 240.216 114.6 241.272 114.408L242.616 114.156V114.984C242.616 115.776 241.728 116.28 240.768 116.28ZM250.277 108.24V111.936C249.905 111.312 249.185 110.88 248.285 110.88C246.617 110.88 245.549 112.044 245.549 114C245.549 115.956 246.617 117.12 248.285 117.12C249.233 117.12 249.989 116.64 250.337 115.956L250.397 117H251.237V108.24H250.277ZM248.393 116.28C247.217 116.28 246.509 115.392 246.509 114C246.509 112.608 247.217 111.72 248.393 111.72C249.533 111.72 250.277 112.572 250.277 113.928V114.072C250.277 115.428 249.533 116.28 248.393 116.28ZM253.948 109.848C254.38 109.848 254.668 109.56 254.668 109.128C254.668 108.696 254.38 108.408 253.948 108.408C253.516 108.408 253.228 108.696 253.228 109.128C253.228 109.56 253.516 109.848 253.948 109.848ZM254.428 111H253.468V117H254.428V111ZM259.571 110.88C258.743 110.88 257.975 111.18 257.555 111.936L257.495 111H256.655V117H257.615V113.808C257.615 112.272 258.599 111.72 259.475 111.72C260.303 111.72 260.951 112.164 260.951 113.496V117H261.911V113.16C261.911 111.612 260.855 110.88 259.571 110.88ZM267.433 116.232H265.441C264.973 116.232 264.649 116.004 264.649 115.584C264.649 115.176 264.841 114.936 265.321 114.828C265.585 114.9 265.897 114.936 266.245 114.936C267.685 114.936 268.705 114.096 268.705 112.908C268.705 112.284 268.429 111.756 267.949 111.396C268.117 110.964 268.573 110.736 269.377 110.736L269.161 109.896C268.261 109.896 267.697 110.292 267.469 111.12C267.109 110.964 266.701 110.88 266.245 110.88C264.805 110.88 263.785 111.72 263.785 112.908C263.785 113.604 264.085 114.192 264.661 114.552C264.133 114.732 263.761 115.104 263.761 115.728C263.761 116.256 264.121 116.616 264.577 116.832C263.917 117.012 263.521 117.444 263.521 117.996C263.521 118.896 264.385 119.58 266.281 119.58C267.901 119.58 269.245 118.848 269.245 117.66C269.245 116.796 268.573 116.232 267.433 116.232ZM266.245 111.66C267.073 111.66 267.709 112.164 267.709 112.908C267.709 113.652 267.073 114.156 266.245 114.156C265.417 114.156 264.781 113.652 264.781 112.908C264.781 112.164 265.417 111.66 266.245 111.66ZM266.389 118.776C265.069 118.776 264.409 118.392 264.409 117.804C264.409 117.348 264.805 117.06 265.561 117.06H267.169C268.069 117.06 268.357 117.336 268.357 117.768C268.357 118.296 267.661 118.776 266.389 118.776ZM153.648 127.88C151.836 127.88 150.744 129.056 150.744 131C150.744 132.944 151.836 134.12 153.648 134.12C155.46 134.12 156.552 132.944 156.552 131C156.552 129.056 155.46 127.88 153.648 127.88ZM153.648 128.708C154.86 128.708 155.592 129.572 155.592 131C155.592 132.428 154.86 133.292 153.648 133.292C152.436 133.292 151.704 132.428 151.704 131C151.704 129.572 152.436 128.708 153.648 128.708ZM161.647 132.776C161.371 133.052 161.059 133.22 160.627 133.22C160.099 133.22 159.727 132.932 159.727 132.344V128.828H161.947V128H159.727V126.296L158.767 126.56V128H157.567V128.828H158.767V132.512C158.779 133.676 159.547 134.12 160.435 134.12C161.095 134.12 161.611 133.916 161.983 133.58L161.647 132.776ZM166.255 127.88C165.439 127.88 164.719 128.18 164.299 128.9V125.24H163.339V134H164.299V130.82C164.299 129.284 165.283 128.72 166.159 128.72C166.987 128.72 167.635 129.164 167.635 130.496V134H168.595V130.16C168.595 128.612 167.539 127.88 166.255 127.88ZM175.916 130.688C175.916 129.14 174.968 127.88 173.228 127.88C171.416 127.88 170.396 129.056 170.396 131C170.396 132.944 171.488 134.12 173.3 134.12C174.596 134.12 175.34 133.628 175.796 132.812L174.992 132.392C174.776 132.968 174.176 133.28 173.3 133.28C172.196 133.28 171.464 132.572 171.344 131.36H175.868C175.892 131.192 175.916 130.964 175.916 130.688ZM173.228 128.72C174.248 128.72 174.86 129.404 174.992 130.508H171.356C171.5 129.38 172.16 128.72 173.228 128.72ZM180.573 127.88C179.637 127.88 178.989 128.252 178.653 128.984L178.521 128H177.741V134H178.701V130.76C178.701 129.416 179.565 128.78 180.285 128.78C180.597 128.78 180.861 128.84 181.041 128.936L181.233 128C181.053 127.904 180.777 127.88 180.573 127.88ZM184.422 134.12C185.958 134.12 186.93 133.388 186.93 132.344C186.93 131.36 186.33 130.856 184.65 130.58C183.426 130.376 183.03 130.112 183.03 129.596C183.03 129.152 183.63 128.72 184.434 128.72C185.19 128.72 185.73 129.008 185.994 129.8L186.81 129.32C186.474 128.336 185.718 127.88 184.434 127.88C182.97 127.88 182.07 128.708 182.07 129.68C182.07 130.688 182.694 131.156 184.398 131.468C185.598 131.684 185.97 131.948 185.97 132.392C185.97 132.884 185.502 133.28 184.518 133.28C183.654 133.28 182.91 132.956 182.622 132.224L181.842 132.764C182.298 133.688 183.318 134.12 184.422 134.12ZM189.19 132.56C188.722 132.56 188.41 132.872 188.41 133.34C188.41 133.808 188.722 134.12 189.19 134.12C189.658 134.12 189.97 133.808 189.97 133.34C189.97 132.872 189.658 132.56 189.19 132.56Z" fill="white"/>
<defs>
<filter id="filter0_f_2916_3910" x="0.636719" y="0.137695" width="163.797" height="163.797" filterUnits="userSpaceOnUse" color-interpolation-filters="sRGB">
<feFlood flood-opacity="0" result="BackgroundImageFix"/>
<feBlend mode="normal" in="SourceGraphic" in2="BackgroundImageFix" result="shape"/>
<feGaussianBlur stdDeviation="27" result="effect1_foregroundBlur_2916_3910"/>
</filter>
<filter id="filter1_f_2916_3910" x="34.0528" y="86.8185" width="88.7459" height="49.4695" filterUnits="userSpaceOnUse" color-interpolation-filters="sRGB">
<feFlood flood-opacity="0" result="BackgroundImageFix"/>
<feBlend mode="normal" in="SourceGraphic" in2="BackgroundImageFix" result="shape"/>
<feGaussianBlur stdDeviation="10.3437" result="effect1_foregroundBlur_2916_3910"/>
</filter>
<filter id="filter2_i_2916_3910" x="61.5762" y="53.4111" width="26.2576" height="34.8921" filterUnits="userSpaceOnUse" color-interpolation-filters="sRGB">
<feFlood flood-opacity="0" result="BackgroundImageFix"/>
<feBlend mode="normal" in="SourceGraphic" in2="BackgroundImageFix" result="shape"/>
<feColorMatrix in="SourceAlpha" type="matrix" values="0 0 0 0 0 0 0 0 0 0 0 0 0 0 0 0 0 0 127 0" result="hardAlpha"/>
<feOffset dx="2.38455" dy="5.56394"/>
<feGaussianBlur stdDeviation="5.96137"/>
<feComposite in2="hardAlpha" operator="arithmetic" k2="-1" k3="1"/>
<feColorMatrix type="matrix" values="0 0 0 0 0.104618 0 0 0 0 0.465612 0 0 0 0 0.545833 0 0 0 0.15 0"/>
<feBlend mode="normal" in2="shape" result="effect1_innerShadow_2916_3910"/>
</filter>
<filter id="filter3_i_2916_3910" x="75.1387" y="59.5264" width="29.4813" height="16.7886" filterUnits="userSpaceOnUse" color-interpolation-filters="sRGB">
<feFlood flood-opacity="0" result="BackgroundImageFix"/>
<feBlend mode="normal" in="SourceGraphic" in2="BackgroundImageFix" result="shape"/>
<feColorMatrix in="SourceAlpha" type="matrix" values="0 0 0 0 0 0 0 0 0 0 0 0 0 0 0 0 0 0 127 0" result="hardAlpha"/>
<feOffset dx="5.62585" dy="3.75056"/>
<feGaussianBlur stdDeviation="6.09467"/>
<feComposite in2="hardAlpha" operator="arithmetic" k2="-1" k3="1"/>
<feColorMatrix type="matrix" values="0 0 0 0 0.104618 0 0 0 0 0.465612 0 0 0 0 0.545833 0 0 0 0.09 0"/>
<feBlend mode="normal" in2="shape" result="effect1_innerShadow_2916_3910"/>
</filter>
<linearGradient id="paint0_linear_2916_3910" x1="49.9584" y1="37.833" x2="113.56" y2="51.0725" gradientUnits="userSpaceOnUse">
<stop stop-color="#A259FF"/>
<stop offset="1" stop-color="#3B3B3B"/>
</linearGradient>
<linearGradient id="paint1_linear_2916_3910" x1="94.4918" y1="104.621" x2="75.8849" y2="102.5" gradientUnits="userSpaceOnUse">
<stop stop-color="#A259FF" stop-opacity="0"/>
<stop offset="1" stop-color="#FF6250"/>
</linearGradient>
<linearGradient id="paint2_linear_2916_3910" x1="113.581" y1="58.8964" x2="118.918" y2="63.0883" gradientUnits="userSpaceOnUse">
<stop stop-color="#A259FF"/>
<stop offset="1" stop-color="#377DF7"/>
</linearGradient>
<linearGradient id="paint3_linear_2916_3910" x1="50.4327" y1="111.212" x2="50.2544" y2="116.522" gradientUnits="userSpaceOnUse">
<stop stop-color="#A259FF"/>
<stop offset="1" stop-color="#377DF7"/>
</linearGradient>
<linearGradient id="paint4_linear_2916_3910" x1="107.945" y1="102.058" x2="113.249" y2="101.753" gradientUnits="userSpaceOnUse">
<stop stop-color="#A259FF"/>
<stop offset="1" stop-color="#377DF7"/>
</linearGradient>
<radialGradient id="paint5_radial_2916_3910" cx="0" cy="0" r="1" gradientUnits="userSpaceOnUse" gradientTransform="translate(78.4258 111.553) rotate(90) scale(4.04753 23.6857)">
<stop stop-color="#2B2B2B"/>
<stop offset="1" stop-color="#2B2B2B" stop-opacity="0"/>
</radialGradient>
<linearGradient id="paint6_linear_2916_3910" x1="64.4398" y1="55.9935" x2="84.5036" y2="55.3752" gradientUnits="userSpaceOnUse">
<stop stop-color="#A259FF"/>
<stop offset="1" stop-color="#3B3B3B"/>
</linearGradient>
<linearGradient id="paint7_linear_2916_3910" x1="77.3082" y1="66.1808" x2="75.9911" y2="62.2769" gradientUnits="userSpaceOnUse">
<stop stop-color="#A259FF"/>
<stop offset="0.666667" stop-color="white"/>
</linearGradient>
<linearGradient id="paint8_linear_2916_3910" x1="79.1432" y1="76.4431" x2="77.8795" y2="72.6547" gradientUnits="userSpaceOnUse">
<stop stop-color="#A259FF"/>
<stop offset="0.666667" stop-color="white"/>
</linearGradient>
<linearGradient id="paint9_linear_2916_3910" x1="78.1919" y1="71.0544" x2="76.9281" y2="67.266" gradientUnits="userSpaceOnUse">
<stop stop-color="#A259FF"/>
<stop offset="0.666667" stop-color="white"/>
</linearGradient>
<linearGradient id="paint10_linear_2916_3910" x1="75.1387" y1="75.4934" x2="89.818" y2="53.4622" gradientUnits="userSpaceOnUse">
<stop stop-color="#A259FF"/>
<stop offset="1" stop-color="#FF6250"/>
</linearGradient>
<linearGradient id="paint11_linear_2916_3910" x1="86.77" y1="100.771" x2="81.7374" y2="77.1512" gradientUnits="userSpaceOnUse">
<stop stop-color="#A259FF"/>
<stop offset="0.666667" stop-color="white"/>
</linearGradient>
<linearGradient id="paint12_linear_2916_3910" x1="103.544" y1="78.8415" x2="115.16" y2="92.3621" gradientUnits="userSpaceOnUse">
<stop stop-color="#A259FF"/>
<stop offset="1" stop-color="#377DF7"/>
</linearGradient>
<linearGradient id="paint13_linear_2916_3910" x1="70.6374" y1="104.362" x2="60.708" y2="94.2174" gradientUnits="userSpaceOnUse">
<stop stop-color="#A259FF"/>
<stop offset="0.666667" stop-color="white"/>
</linearGradient>
<linearGradient id="paint14_linear_2916_3910" x1="88.0892" y1="92.7718" x2="68.1305" y2="52.9815" gradientUnits="userSpaceOnUse">
<stop stop-color="#A259FF"/>
<stop offset="0.666667" stop-color="white"/>
</linearGradient>
<linearGradient id="paint15_linear_2916_3910" x1="65.8262" y1="102.713" x2="72.0233" y2="103.907" gradientUnits="userSpaceOnUse">
<stop stop-color="white"/>
<stop offset="1" stop-color="#BCF3FF"/>
</linearGradient>
<linearGradient id="paint16_linear_2916_3910" x1="60.5227" y1="78.2066" x2="97.06" y2="85.1001" gradientUnits="userSpaceOnUse">
<stop stop-color="#AFF1FF"/>
<stop offset="1" stop-color="#65C8DE"/>
</linearGradient>
<linearGradient id="paint17_linear_2916_3910" x1="90.7608" y1="80.4091" x2="91.355" y2="72.8859" gradientUnits="userSpaceOnUse">
<stop stop-color="#A259FF"/>
<stop offset="0.666667" stop-color="white"/>
</linearGradient>
</defs>
</svg>
