<svg width="206" height="206" viewBox="0 0 206 206" fill="none" xmlns="http://www.w3.org/2000/svg">
<path d="M103.001 169.666C139.82 169.666 169.667 139.819 169.667 103C169.667 66.1807 139.82 36.333 103.001 36.333C66.1816 36.333 36.334 66.1807 36.334 103C36.334 139.819 66.1816 169.666 103.001 169.666Z" fill="url(#paint0_linear_2916_2124)"/>
<g filter="url(#filter0_f_2916_2124)">
<path d="M103 151.696C129.894 151.696 151.696 129.894 151.696 103C151.696 76.1065 129.894 54.3047 103 54.3047C76.1065 54.3047 54.3047 76.1065 54.3047 103C54.3047 129.894 76.1065 151.696 103 151.696Z" fill="url(#paint1_linear_2916_2124)"/>
</g>
<path fill-rule="evenodd" clip-rule="evenodd" d="M98.4187 48.8437C99.534 48.8437 100.438 47.9395 100.438 46.8242C100.438 45.7089 99.534 44.8047 98.4187 44.8047C97.3033 44.8047 96.3995 45.7089 96.3995 46.8242C96.3995 47.9395 97.3033 48.8437 98.4187 48.8437ZM98.4187 50.3584C100.371 50.3584 101.953 48.7761 101.953 46.8242C101.953 44.8724 100.371 43.29 98.4187 43.29C96.4668 43.29 94.8848 44.8724 94.8848 46.8242C94.8848 48.7761 96.4668 50.3584 98.4187 50.3584Z" fill="white"/>
<path fill-rule="evenodd" clip-rule="evenodd" d="M50.3017 141.598C51.4171 141.598 52.3213 140.693 52.3213 139.578C52.3213 138.462 51.4171 137.559 50.3017 137.559C49.1864 137.559 48.2822 138.462 48.2822 139.578C48.2822 140.693 49.1864 141.598 50.3017 141.598ZM50.3017 143.112C52.2536 143.112 53.8359 141.53 53.8359 139.578C53.8359 137.626 52.2536 136.044 50.3017 136.044C48.3499 136.044 46.7676 137.626 46.7676 139.578C46.7676 141.53 48.3499 143.112 50.3017 143.112Z" fill="white"/>
<path fill-rule="evenodd" clip-rule="evenodd" d="M161.028 136.96C162.143 136.96 163.048 136.056 163.048 134.94C163.048 133.825 162.143 132.921 161.028 132.921C159.913 132.921 159.009 133.825 159.009 134.94C159.009 136.056 159.913 136.96 161.028 136.96ZM161.028 138.475C162.98 138.475 164.563 136.892 164.563 134.94C164.563 132.988 162.98 131.406 161.028 131.406C159.076 131.406 157.494 132.988 157.494 134.94C157.494 136.892 159.076 138.475 161.028 138.475Z" fill="white"/>
<path d="M65.5456 57.8922C65.6941 57.2768 66.5694 57.2768 66.7179 57.8922L67.2179 59.9633C67.271 60.1831 67.4427 60.3548 67.6626 60.408L69.7336 60.9079C70.349 61.0564 70.349 61.9317 69.7336 62.0802L67.6626 62.5802C67.4427 62.6333 67.271 62.8049 67.2179 63.0249L66.7179 65.096C66.5694 65.7113 65.6941 65.7113 65.5456 65.096L65.0456 63.0249C64.9925 62.8049 64.8209 62.6333 64.601 62.5802L62.5299 62.0802C61.9145 61.9317 61.9145 61.0564 62.5299 60.9079L64.601 60.408C64.8209 60.3548 64.9925 60.1831 65.0456 59.9633L65.5456 57.8922Z" fill="white"/>
<path d="M151.288 148.56C151.451 147.886 152.41 147.886 152.573 148.56L153.121 150.83C153.179 151.072 153.368 151.26 153.609 151.318L155.879 151.866C156.553 152.029 156.553 152.988 155.879 153.151L153.609 153.699C153.368 153.757 153.179 153.946 153.121 154.186L152.573 156.457C152.41 157.131 151.451 157.131 151.288 156.457L150.74 154.186C150.682 153.946 150.493 153.757 150.253 153.699L147.983 153.151C147.308 152.988 147.308 152.029 147.983 151.866L150.253 151.318C150.493 151.26 150.682 151.072 150.74 150.83L151.288 148.56Z" fill="url(#paint2_linear_2916_2124)"/>
<path d="M56.0613 157.05C56.8288 156.927 57.4416 157.681 57.1643 158.407L55.2924 163.309C55.015 164.035 54.0556 164.189 53.5654 163.585L50.2565 159.514C49.7662 158.911 50.1129 158.003 50.8804 157.88L56.0613 157.05Z" fill="url(#paint3_linear_2916_2124)"/>
<path d="M154.583 63.0035C154.391 62.2503 155.086 61.5716 155.835 61.782L160.886 63.2014C161.634 63.4117 161.875 64.3532 161.318 64.8962L157.563 68.5609C157.007 69.1038 156.072 68.841 155.879 68.0878L154.583 63.0035Z" fill="url(#paint4_linear_2916_2124)"/>
<path d="M137.763 98.1946L126.81 100.324C123.694 100.929 121.659 103.946 122.265 107.062C122.871 110.178 125.888 112.213 129.003 111.608L139.957 109.479C143.072 108.873 145.107 105.856 144.501 102.74C143.896 99.6242 140.879 97.5888 137.763 98.1946Z" fill="url(#paint5_linear_2916_2124)"/>
<path d="M142.067 103.814C142.122 102.395 141.017 101.201 139.598 101.146C138.18 101.09 136.985 102.195 136.93 103.614C136.874 105.033 137.98 106.227 139.398 106.283C140.817 106.338 142.012 105.233 142.067 103.814Z" fill="#EBEBEB"/>
<path d="M139.765 105.095C140.528 104.947 141.026 104.208 140.878 103.446C140.73 102.683 139.991 102.185 139.228 102.333C138.466 102.481 137.968 103.22 138.116 103.982C138.264 104.745 139.003 105.243 139.765 105.095Z" fill="#DBDBDB"/>
<path d="M120.398 80.884L64.4733 91.7547C61.3305 92.3652 59.2779 95.4087 59.8888 98.5513L67.4448 137.423C68.0557 140.566 71.0987 142.618 74.2415 142.007L130.166 131.137C133.309 130.526 135.361 127.483 134.751 124.34L127.194 85.4684C126.584 82.3258 123.541 80.2731 120.398 80.884Z" fill="url(#paint6_linear_2916_2124)"/>
<path d="M119.376 63.2077L130.8 92.7356C131.44 94.386 130.618 96.2423 128.97 96.8805L82.1394 114.998C80.4917 115.637 78.6354 114.815 77.9958 113.165L66.5723 83.6365C65.9793 82.1003 66.7411 80.3741 68.2778 79.7812L115.52 61.5059C117.056 60.9129 118.782 61.6747 119.375 63.2114L119.376 63.2077Z" fill="url(#paint7_linear_2916_2124)"/>
<path d="M121.576 91.519C122.162 93.0373 121.409 94.7445 119.891 95.33C118.373 95.9161 116.665 95.1625 116.08 93.6443C115.494 92.1266 116.247 90.4193 117.765 89.8332C119.283 89.2477 120.991 90.0014 121.576 91.519Z" fill="url(#paint8_linear_2916_2124)"/>
<path d="M124.959 90.2082C125.545 91.7265 124.791 93.4337 123.274 94.0198C121.755 94.6053 120.048 93.8517 119.462 92.334C118.877 90.8158 119.63 89.1085 121.148 88.523C122.666 87.9369 124.373 88.6905 124.959 90.2082Z" fill="url(#paint9_linear_2916_2124)"/>
<path d="M80.6867 80.8088L73.0141 83.7769C72.3955 84.0163 72.088 84.7119 72.3273 85.3305L74.1112 89.9415C74.3505 90.5601 75.046 90.8679 75.6646 90.6285L83.337 87.6598C83.9561 87.4209 84.2634 86.7253 84.0239 86.1067L82.2402 81.4957C82.0008 80.8769 81.3051 80.5694 80.6867 80.8088Z" fill="url(#paint10_linear_2916_2124)"/>
<path d="M115.607 71.616L111.121 73.3503C110.083 73.749 108.917 73.2346 108.516 72.1971C108.117 71.1586 108.632 69.9933 109.669 69.592L114.155 67.8577C115.193 67.4564 116.359 67.9735 116.76 69.0109C117.159 70.0494 116.644 71.2148 115.607 71.616Z" fill="white"/>
<path d="M76.594 97.4439L76.2805 97.8398C76.2805 97.8398 76.2546 97.8682 76.2359 97.8752C76.1985 97.8897 76.1583 97.8804 76.132 97.8601C76.0822 97.8178 76.0756 97.7529 76.1171 97.7094L76.5423 97.1575C76.5784 97.1158 76.6513 97.1065 76.6928 97.1424C76.7153 97.1616 76.7272 97.1842 76.7348 97.212L77.7573 99.852C77.7778 99.9053 77.7552 99.9662 77.6965 99.9888C77.643 100.009 77.5803 99.9813 77.5598 99.9279L76.5993 97.4416L76.594 97.4439Z" fill="#F8F8F8"/>
<path d="M78.4285 99.5022L79.3013 97.7701C79.4041 97.5591 79.4137 97.3289 79.3348 97.1231C79.2672 96.9469 79.1328 96.7967 78.9503 96.704C78.7447 96.5996 78.5101 96.5944 78.3109 96.6738C78.1293 96.744 77.9767 96.8727 77.8817 97.0565L77.7921 97.2379C77.7674 97.293 77.6997 97.3162 77.6523 97.2883C77.5968 97.2634 77.5739 97.1962 77.6016 97.1486L77.6902 96.9643C77.8103 96.7347 78.0081 96.5637 78.235 96.4767C78.4859 96.3799 78.7765 96.3788 79.0443 96.5179C79.2822 96.635 79.4483 96.8286 79.5334 97.0501C79.6307 97.304 79.6277 97.5991 79.4949 97.8675L78.7476 99.3521L80.1091 98.8292C80.1615 98.806 80.2233 98.8315 80.2458 98.8901C80.2663 98.9434 80.2383 99.0066 80.185 99.0269L78.5826 99.6478L78.5666 99.6541C78.5372 99.6657 78.5047 99.6686 78.4805 99.6535C78.4258 99.6222 78.4022 99.5608 78.4269 99.5057L78.4285 99.5022Z" fill="#F8F8F8"/>
<path d="M81.6205 95.3731L81.173 96.4241C81.3684 96.3922 81.5747 96.4108 81.7672 96.4966C82.0292 96.6131 82.2217 96.827 82.3179 97.078C82.4142 97.329 82.4171 97.616 82.2976 97.8792C82.1811 98.1418 81.9678 98.3366 81.7179 98.4357C81.4727 98.5296 81.1857 98.5325 80.9224 98.4131C80.868 98.391 80.8408 98.3284 80.8671 98.2693C80.8881 98.2119 80.9521 98.1876 81.0113 98.2137C81.22 98.3024 81.4431 98.3024 81.6408 98.2264C81.8385 98.1505 82.0072 97.9997 82.1023 97.7922C82.1956 97.5812 82.1921 97.3563 82.1162 97.1586C82.0402 96.9609 81.8901 96.7922 81.6814 96.7041C81.4733 96.609 81.2484 96.6131 81.0507 96.6884C81.0188 96.7012 80.9828 96.696 80.9525 96.6803L80.9471 96.6826C80.8891 96.6589 80.8634 96.5922 80.8908 96.5354L81.3208 95.525L80.2182 95.9481C80.1605 95.9737 80.0977 95.9458 80.0762 95.8896C80.0536 95.831 80.0816 95.7679 80.1376 95.7464L81.4831 95.2299C81.5405 95.205 81.6037 95.2328 81.6252 95.289C81.6315 95.3047 81.6321 95.3232 81.6292 95.3395C81.6292 95.3545 81.6252 95.3684 81.6199 95.3795L81.6205 95.3731Z" fill="#F8F8F8"/>
<path d="M84.846 96.5423L83.2895 97.1458L83.2762 97.151C83.2547 97.1591 83.2287 97.1632 83.2066 97.1533C83.1487 97.1389 83.1179 97.0739 83.14 97.0194L84.0032 94.3052L84.0061 94.2977C84.0263 94.238 84.0803 94.2113 84.14 94.231C84.1608 94.2386 84.1765 94.2542 84.1904 94.267C84.1933 94.2751 84.2008 94.278 84.202 94.2809L84.2072 94.2942L84.9695 96.2652L85.162 96.191C85.2205 96.169 85.2837 96.1968 85.304 96.2502C85.3243 96.3035 85.2965 96.3661 85.2403 96.3876L85.0484 96.4618L85.2379 96.9557C85.2582 97.009 85.2304 97.0716 85.1742 97.0931C85.1208 97.1139 85.0582 97.0855 85.0374 97.0322L84.8478 96.5383L84.846 96.5423ZM84.7707 96.3446L84.1185 94.6623L83.4113 96.8728L84.7724 96.3499L84.7707 96.3446Z" fill="#F8F8F8"/>
<path d="M88.5681 95.4567C88.5101 95.4329 88.4846 95.3662 88.513 95.3123C88.538 95.2572 88.6035 95.2288 88.6597 95.2561C88.8684 95.3448 89.0922 95.3448 89.2893 95.2688C89.4869 95.1929 89.6504 95.0445 89.7443 94.834C89.8383 94.623 89.8354 94.4004 89.7594 94.2033C89.6829 94.0027 89.5322 93.834 89.3252 93.7419C89.1194 93.6526 88.8933 93.6538 88.6956 93.7291C88.4951 93.8062 88.3293 93.9558 88.2354 94.1662C88.2104 94.2219 88.1438 94.2474 88.091 94.2219C88.0748 94.219 88.0614 94.2085 88.0551 94.1987L88.0527 94.1935C88.0527 94.1935 88.0446 94.1877 88.0423 94.1825C88.0342 94.1761 88.029 94.1627 88.0249 94.1523C88.0226 94.1471 88.022 94.1378 88.0191 94.1297L87.7096 92.9164C87.6974 92.8845 87.7032 92.8514 87.7211 92.8265C87.731 92.8039 87.7519 92.7871 87.7785 92.7767L89.1188 92.2625C89.1762 92.2369 89.2388 92.2648 89.2609 92.321C89.2841 92.3825 89.2551 92.4427 89.1994 92.4642L87.9443 92.9459L88.1727 93.8445C88.2858 93.6996 88.4365 93.59 88.6104 93.5233C88.8614 93.4271 89.1409 93.4207 89.4075 93.5419C89.6754 93.6567 89.8603 93.8671 89.9588 94.1233C90.0527 94.3691 90.0632 94.6596 89.9409 94.9239C89.8232 95.183 89.6075 95.3796 89.3594 95.4746C89.1084 95.5709 88.8214 95.5738 88.5594 95.4572L88.5681 95.4567Z" fill="#F8F8F8"/>
<path d="M90.5474 92.4346C90.6112 92.0091 90.8425 91.6231 91.3132 91.4207C91.3648 91.3952 91.4274 91.423 91.4535 91.4746C91.4755 91.5332 91.4477 91.5958 91.3955 91.619C90.9984 91.79 90.8251 92.0955 90.7579 92.4642C90.7236 92.67 90.7376 92.8978 90.7764 93.1187C90.8744 92.8544 91.0784 92.6288 91.3619 92.5204C91.8929 92.3164 92.4802 92.5778 92.6813 93.1013C92.8831 93.6271 92.6239 94.2132 92.0964 94.419C91.5816 94.6167 91.0065 94.372 90.7921 93.8694C90.7608 93.8109 90.737 93.7494 90.7115 93.6828C90.5677 93.3002 90.4842 92.8509 90.5503 92.4335L90.5474 92.4346ZM90.9863 93.7761C90.9944 93.7975 91.006 93.8115 91.0147 93.8265C91.0199 93.8399 91.0228 93.848 91.0205 93.8578C91.2118 94.2045 91.6379 94.3651 92.0147 94.2207C92.4338 94.0602 92.6396 93.5917 92.4819 93.1807C92.3242 92.7697 91.8558 92.5633 91.4367 92.7245C91.0257 92.8822 90.8193 93.35 90.9776 93.7616L90.9834 93.7772L90.9863 93.7761Z" fill="#F8F8F8"/>
<path d="M94.0392 93.5076L94.1262 90.5737L92.7349 91.1076C92.6827 91.1302 92.6207 91.1053 92.6004 91.052C92.5801 90.9986 92.6079 90.9354 92.6613 90.9152L94.183 90.3308C94.201 90.3146 94.2201 90.3076 94.2445 90.3076C94.2734 90.3117 94.3042 90.3273 94.3216 90.3482C94.332 90.3598 94.3378 90.3667 94.3418 90.3772C94.35 90.3986 94.3505 90.4166 94.3459 90.4369L94.256 93.5128C94.2543 93.5563 94.2259 93.5951 94.1888 93.6091C94.1726 93.6154 94.1645 93.6183 94.1453 93.6166C94.0868 93.6149 94.0392 93.5627 94.0363 93.5082L94.0392 93.5076Z" fill="#F8F8F8"/>
<path d="M95.8205 89.6715C96.1492 89.5457 96.5237 89.708 96.65 90.0361C96.7266 90.2367 96.6947 90.4477 96.5909 90.6164C96.9857 90.6239 97.355 90.868 97.5039 91.2552C97.7028 91.7729 97.4489 92.3486 96.9318 92.5497C96.4164 92.748 95.8384 92.4947 95.6373 91.9781C95.4883 91.5909 95.5973 91.1631 95.879 90.8929C95.6929 90.8384 95.53 90.7022 95.4535 90.5016C95.3271 90.1735 95.4854 89.8031 95.8193 89.6749L95.8205 89.6715ZM96.8576 92.3486C97.2686 92.1909 97.4645 91.7358 97.3092 91.33C97.1544 90.9271 96.7016 90.7207 96.29 90.879C95.8842 91.0344 95.6842 91.4941 95.839 91.8976C95.9955 92.3057 96.4518 92.5045 96.8576 92.3486ZM96.2089 90.6744C96.428 90.5839 96.5399 90.3329 96.4553 90.1109C96.37 89.8894 96.1208 89.7828 95.8993 89.868C95.6779 89.9532 95.57 90.1996 95.6553 90.421C95.7405 90.6425 95.9886 90.7555 96.2112 90.6732L96.2089 90.6744Z" fill="#F8F8F8"/>
<path d="M100.931 87.6947C101.424 87.5052 101.964 87.715 102.199 88.1666C102.207 88.173 102.209 88.1782 102.215 88.1852C102.25 88.2605 102.285 88.3423 102.317 88.4275C102.464 88.8095 102.547 89.2646 102.486 89.6803C102.419 90.0976 102.186 90.4936 101.72 90.6936L101.715 90.6959C101.656 90.7185 101.595 90.6959 101.575 90.6426C101.553 90.5834 101.576 90.5255 101.633 90.4976C102.023 90.3261 102.209 90.0194 102.27 89.6524C102.302 89.4414 102.296 89.2171 102.252 88.9979C102.154 89.2623 101.946 89.4797 101.658 89.5904C101.135 89.791 100.548 89.5388 100.341 89.0084C100.14 88.4855 100.402 87.8976 100.925 87.6971L100.931 87.6947ZM102.048 88.3475C101.89 87.9365 101.426 87.7342 101.007 87.8953C100.596 88.053 100.389 88.5185 100.546 88.9272C100.707 89.3463 101.172 89.544 101.583 89.3863C102.002 89.2258 102.209 88.7666 102.045 88.3481L102.048 88.3475Z" fill="#F8F8F8"/>
<path d="M103.172 88.4824C103.024 88.0957 102.984 87.7062 103.057 87.3688C103.135 87.0453 103.318 86.7728 103.609 86.6609C103.9 86.5491 104.221 86.6279 104.495 86.814C104.771 87.0146 105.013 87.3259 105.164 87.712C105.313 88.0986 105.344 88.4911 105.272 88.8221C105.195 89.1485 105.013 89.4238 104.722 89.5357C104.431 89.647 104.109 89.5682 103.834 89.3769C103.557 89.1833 103.32 88.8673 103.171 88.4801L103.172 88.4824ZM103.372 88.4059C103.508 88.7583 103.726 89.0389 103.96 89.203C104.193 89.3647 104.439 89.4146 104.645 89.3351C104.85 89.2563 104.993 89.0546 105.062 88.7775C105.123 88.4992 105.1 88.1438 104.965 87.7914C104.83 87.4389 104.606 87.1601 104.374 86.9949C104.135 86.8267 103.895 86.7838 103.69 86.8627C103.484 86.9415 103.333 87.1375 103.273 87.4209C103.211 87.6986 103.24 88.0522 103.376 88.4076L103.372 88.4059Z" fill="#F8F8F8"/>
<path d="M106.049 86.051L105.736 86.4475C105.736 86.4475 105.71 86.4753 105.691 86.4829C105.654 86.4974 105.614 86.4881 105.587 86.4678C105.537 86.4255 105.531 86.3606 105.572 86.3171L105.997 85.7646C106.034 85.7235 106.106 85.7136 106.148 85.7501C106.171 85.7687 106.182 85.7919 106.19 85.8197L107.212 88.4591C107.233 88.513 107.21 88.5733 107.152 88.5959C107.098 88.6168 107.036 88.5884 107.015 88.5351L106.055 86.0493L106.049 86.051Z" fill="#F8F8F8"/>
<path d="M107.882 88.1082L108.754 86.3766C108.858 86.1656 108.867 85.9348 108.788 85.7296C108.72 85.5534 108.586 85.4027 108.404 85.3105C108.198 85.2056 107.963 85.2009 107.764 85.2804C107.583 85.3499 107.431 85.4815 107.335 85.6624L107.245 85.8438C107.221 85.8995 107.153 85.9221 107.106 85.8943C107.05 85.8699 107.027 85.8021 107.055 85.7546L107.143 85.5708C107.263 85.3406 107.461 85.1696 107.687 85.0798C107.938 84.9835 108.229 84.9824 108.497 85.1215C108.734 85.2386 108.901 85.4322 108.986 85.6537C109.083 85.907 109.08 86.2027 108.947 86.4711L108.2 87.9557L109.561 87.4328C109.614 87.4096 109.677 87.4375 109.698 87.4937C109.719 87.547 109.691 87.6096 109.637 87.6305L108.035 88.2514L108.019 88.2577C107.989 88.2688 107.957 88.2722 107.933 88.2572C107.878 88.2259 107.854 88.1644 107.879 88.1093L107.882 88.1082Z" fill="#F8F8F8"/>
<path d="M113.535 83.0274L113.087 84.079C113.283 84.0465 113.489 84.0651 113.681 84.1509C113.944 84.2674 114.136 84.4813 114.232 84.7323C114.329 84.9833 114.331 85.2703 114.212 85.5335C114.095 85.7961 113.882 85.9909 113.635 86.0888C113.389 86.1833 113.1 86.1874 112.836 86.068C112.782 86.0459 112.755 85.9827 112.781 85.9236C112.803 85.8691 112.866 85.8419 112.925 85.868C113.134 85.9566 113.358 85.9566 113.555 85.8807C113.752 85.8048 113.922 85.654 114.016 85.4465C114.11 85.2361 114.106 85.0106 114.031 84.8129C113.955 84.6158 113.804 84.4465 113.595 84.3584C113.388 84.2633 113.162 84.2674 112.964 84.3433C112.933 84.3555 112.897 84.3509 112.867 84.3346L112.861 84.3369C112.803 84.3132 112.777 84.2465 112.805 84.1897L113.235 83.1798L112.132 83.603C112.075 83.628 112.012 83.6001 111.99 83.5439C111.968 83.4853 111.996 83.4222 112.051 83.4007L113.397 82.8842C113.455 82.8593 113.518 82.8871 113.539 82.9433C113.545 82.9595 113.546 82.9775 113.543 82.9937C113.543 83.0094 113.539 83.0227 113.534 83.0337L113.535 83.0274Z" fill="#F8F8F8"/>
<path d="M116.761 84.1967L115.202 84.7956L115.198 84.8002L115.19 84.8031C115.169 84.8112 115.144 84.8182 115.121 84.8054C115.063 84.7909 115.032 84.726 115.054 84.6715L115.917 81.9573L115.92 81.9498C115.94 81.8901 115.994 81.8634 116.054 81.8837C116.075 81.8906 116.091 81.9063 116.104 81.919C116.107 81.9272 116.113 81.9312 116.116 81.933L116.121 81.9463L116.884 83.9173L117.076 83.8437C117.135 83.8211 117.198 83.8489 117.218 83.9022C117.238 83.9556 117.211 84.0187 117.154 84.0402L116.962 84.1138L117.152 84.6077C117.172 84.6611 117.144 84.7237 117.088 84.7451C117.035 84.766 116.972 84.7382 116.951 84.6843L116.762 84.1903L116.761 84.1967ZM116.685 83.9996L116.034 82.3167L115.326 84.5272L116.688 84.0048L116.685 83.9996Z" fill="#F8F8F8"/>
<path d="M118.021 84.0623C117.963 84.0386 117.938 83.9719 117.966 83.918C117.991 83.8629 118.058 83.8368 118.113 83.8618C118.322 83.9499 118.545 83.9499 118.742 83.8745C118.94 83.7986 119.104 83.6502 119.197 83.4392C119.291 83.2287 119.288 83.0061 119.213 82.8084C119.135 82.6084 118.985 82.4397 118.778 82.3476C118.571 82.2554 118.346 82.2589 118.149 82.3348C117.948 82.4119 117.782 82.5615 117.688 82.7719C117.664 82.8276 117.598 82.8554 117.544 82.827C117.528 82.8241 117.515 82.8142 117.508 82.8044L117.506 82.7992C117.506 82.7992 117.498 82.7934 117.495 82.7876C117.487 82.7818 117.482 82.7684 117.478 82.758C117.476 82.7522 117.475 82.7435 117.472 82.7354L117.163 81.5221C117.151 81.4896 117.156 81.4571 117.174 81.4316C117.184 81.4096 117.205 81.3922 117.232 81.3823L118.571 80.8677C118.629 80.8425 118.692 80.8705 118.713 80.9265C118.737 80.9881 118.708 81.0479 118.652 81.0693L117.397 81.551L117.626 82.4496C117.74 82.3081 117.89 82.1951 118.064 82.129C118.314 82.0322 118.593 82.0264 118.861 82.1476C119.128 82.2623 119.313 82.4728 119.412 82.729C119.506 82.9748 119.516 83.2647 119.394 83.529C119.276 83.7887 119.061 83.9847 118.813 84.0803C118.562 84.1765 118.275 84.1794 118.013 84.0629L118.021 84.0623Z" fill="#F8F8F8"/>
<path d="M120.001 81.0393C120.065 80.6136 120.295 80.2249 120.767 80.0254C120.818 79.9996 120.881 80.0275 120.906 80.0789C120.929 80.1376 120.901 80.2004 120.849 80.2236C120.453 80.397 120.278 80.6999 120.211 81.0689C120.177 81.2747 120.191 81.5019 120.23 81.7233C120.328 81.459 120.532 81.2335 120.815 81.1251C121.346 80.9209 121.934 81.1825 122.135 81.7054C122.337 82.2318 122.077 82.8178 121.55 83.0236C121.034 83.2213 120.46 82.9767 120.245 82.4735C120.214 82.4155 120.19 82.3541 120.165 82.2874C120.021 81.9042 119.937 81.4555 120.004 81.0381L120.001 81.0393ZM120.44 82.3807C120.448 82.4022 120.459 82.4161 120.468 82.4312C120.473 82.4445 120.476 82.4526 120.474 82.4625C120.665 82.8086 121.091 82.9697 121.468 82.8254C121.887 82.6642 122.093 82.1964 121.935 81.7854C121.778 81.3738 121.309 81.168 120.89 81.3286C120.479 81.4868 120.273 81.9547 120.43 82.3657L120.437 82.3819L120.44 82.3807Z" fill="#F8F8F8"/>
<path d="M104.944 95.1182L79.8672 104.82L80.3439 106.051L105.42 96.35L104.944 95.1182Z" fill="url(#paint11_linear_2916_2124)"/>
<path d="M98.6793 100.689L80.9258 107.558L81.4022 108.79L99.1559 101.922L98.6793 100.689Z" fill="url(#paint12_linear_2916_2124)"/>
<path d="M105.45 71.2253L94.1765 75.5865C93.8362 75.7182 93.6669 76.1006 93.7985 76.4409C93.9301 76.7811 94.3127 76.9503 94.653 76.8186L105.926 72.4575C106.266 72.3258 106.435 71.9433 106.303 71.6031C106.172 71.2628 105.789 71.0937 105.45 71.2253Z" fill="#3B3B3B"/>
<path d="M126.107 102.702L67.3516 114.124L71.9239 137.646L130.68 126.225L126.107 102.702Z" fill="url(#paint13_linear_2916_2124)"/>
<path opacity="0.2" d="M126.107 102.702L67.3516 114.124L71.9239 137.646L130.68 126.225L126.107 102.702Z" fill="black"/>
<path d="M131.535 140.303L73.6474 143.232C70.7651 143.378 68.2145 141.382 67.6638 138.549L59.3308 95.6791C59.1342 94.6676 60.1737 93.8635 61.1034 94.3081C62.1824 94.8235 63.3814 95.042 64.5764 94.9412L116.579 90.4931C119.531 90.2403 122.198 92.2542 122.764 95.1626L131.537 140.299C131.537 140.301 131.536 140.302 131.535 140.303Z" fill="url(#paint14_linear_2916_2124)"/>
<path d="M119.24 119.191C120.587 118.93 121.438 117.473 121.139 115.938C120.841 114.404 119.507 113.372 118.16 113.633C116.813 113.895 115.962 115.352 116.261 116.887C116.559 118.421 117.893 119.453 119.24 119.191Z" fill="#EBEBEB"/>
<path d="M119.835 116.192C119.973 116.905 119.578 117.582 118.952 117.703C118.326 117.825 117.705 117.346 117.567 116.633C117.428 115.92 117.824 115.243 118.45 115.121C119.076 115 119.696 115.479 119.835 116.192Z" fill="#DBDBDB"/>
<defs>
<filter id="filter0_f_2916_2124" x="0.304688" y="0.304688" width="205.391" height="205.392" filterUnits="userSpaceOnUse" color-interpolation-filters="sRGB">
<feFlood flood-opacity="0" result="BackgroundImageFix"/>
<feBlend mode="normal" in="SourceGraphic" in2="BackgroundImageFix" result="shape"/>
<feGaussianBlur stdDeviation="27" result="effect1_foregroundBlur_2916_2124"/>
</filter>
<linearGradient id="paint0_linear_2916_2124" x1="54.9331" y1="36.333" x2="156.695" y2="57.5162" gradientUnits="userSpaceOnUse">
<stop stop-color="#A259FF"/>
<stop offset="1" stop-color="#3B3B3B"/>
</linearGradient>
<linearGradient id="paint1_linear_2916_2124" x1="70.0728" y1="54.3047" x2="164.251" y2="72.4676" gradientUnits="userSpaceOnUse">
<stop stop-color="#A259FF" stop-opacity="0"/>
<stop offset="1" stop-color="#FF6250"/>
</linearGradient>
<linearGradient id="paint2_linear_2916_2124" x1="153.835" y1="150.035" x2="162.374" y2="156.741" gradientUnits="userSpaceOnUse">
<stop stop-color="#A259FF"/>
<stop offset="1" stop-color="#377DF7"/>
</linearGradient>
<linearGradient id="paint3_linear_2916_2124" x1="56.8528" y1="159.536" x2="56.5676" y2="168.032" gradientUnits="userSpaceOnUse">
<stop stop-color="#A259FF"/>
<stop offset="1" stop-color="#377DF7"/>
</linearGradient>
<linearGradient id="paint4_linear_2916_2124" x1="156.987" y1="61.9897" x2="165.474" y2="61.5029" gradientUnits="userSpaceOnUse">
<stop stop-color="#A259FF"/>
<stop offset="1" stop-color="#377DF7"/>
</linearGradient>
<linearGradient id="paint5_linear_2916_2124" x1="124.768" y1="100.72" x2="145.696" y2="104.339" gradientUnits="userSpaceOnUse">
<stop stop-color="#A259FF"/>
<stop offset="1" stop-color="#3B3B3B"/>
</linearGradient>
<linearGradient id="paint6_linear_2916_2124" x1="110.999" y1="153.374" x2="88.3906" y2="108.977" gradientUnits="userSpaceOnUse">
<stop stop-color="#A259FF"/>
<stop offset="1" stop-color="#3B3B3B"/>
</linearGradient>
<linearGradient id="paint7_linear_2916_2124" x1="74.0247" y1="77.4342" x2="128.472" y2="72.7314" gradientUnits="userSpaceOnUse">
<stop stop-color="#A259FF"/>
<stop offset="1" stop-color="#FF6250"/>
</linearGradient>
<linearGradient id="paint8_linear_2916_2124" x1="115.912" y1="90.5451" x2="121.626" y2="89.5289" gradientUnits="userSpaceOnUse">
<stop stop-color="#A259FF"/>
<stop offset="1" stop-color="#FF6250"/>
</linearGradient>
<linearGradient id="paint9_linear_2916_2124" x1="119.295" y1="89.2343" x2="125.009" y2="88.2181" gradientUnits="userSpaceOnUse">
<stop stop-color="#A259FF"/>
<stop offset="1" stop-color="#3B3B3B"/>
</linearGradient>
<linearGradient id="paint10_linear_2916_2124" x1="73.4989" y1="83.5896" x2="83.719" y2="82.5948" gradientUnits="userSpaceOnUse">
<stop stop-color="#A259FF"/>
<stop offset="1" stop-color="#3B3B3B"/>
</linearGradient>
<linearGradient id="paint11_linear_2916_2124" x1="83.9271" y1="103.249" x2="87.7879" y2="108.673" gradientUnits="userSpaceOnUse">
<stop stop-color="#A259FF"/>
<stop offset="1" stop-color="#FF6250"/>
</linearGradient>
<linearGradient id="paint12_linear_2916_2124" x1="83.7999" y1="106.446" x2="88.0364" y2="111.329" gradientUnits="userSpaceOnUse">
<stop stop-color="#A259FF"/>
<stop offset="1" stop-color="#FF6250"/>
</linearGradient>
<linearGradient id="paint13_linear_2916_2124" x1="76.8643" y1="112.274" x2="129.174" y2="126.018" gradientUnits="userSpaceOnUse">
<stop stop-color="#A259FF"/>
<stop offset="1" stop-color="#3B3B3B"/>
</linearGradient>
<linearGradient id="paint14_linear_2916_2124" x1="115.925" y1="126.024" x2="25.308" y2="82.5342" gradientUnits="userSpaceOnUse">
<stop stop-color="#A259FF"/>
<stop offset="0.666667" stop-color="white"/>
</linearGradient>
</defs>
</svg>
