<svg width="330" height="170" viewBox="0 0 330 170" fill="none" xmlns="http://www.w3.org/2000/svg">
<rect x="15" y="15" width="315" height="140" rx="20" fill="#3B3B3B"/>
<path d="M85.0006 126.666C108.013 126.666 126.667 108.012 126.667 84.9997C126.667 61.9878 108.013 43.333 85.0006 43.333C61.9888 43.333 43.334 61.9878 43.334 84.9997C43.334 108.012 61.9888 126.666 85.0006 126.666Z" fill="url(#paint0_linear_2916_3883)"/>
<g filter="url(#filter0_f_2916_3883)">
<path d="M84.9992 115.435C101.808 115.435 115.434 101.809 115.434 85.0002C115.434 68.1916 101.808 54.5654 84.9992 54.5654C68.1906 54.5654 54.5645 68.1916 54.5645 85.0002C54.5645 101.809 68.1906 115.435 84.9992 115.435Z" fill="url(#paint1_linear_2916_3883)"/>
</g>
<path fill-rule="evenodd" clip-rule="evenodd" d="M65.1073 53.6888C65.8044 53.6888 66.3695 53.1237 66.3695 52.4266C66.3695 51.7295 65.8044 51.1644 65.1073 51.1644C64.4102 51.1644 63.8451 51.7295 63.8451 52.4266C63.8451 53.1237 64.4102 53.6888 65.1073 53.6888ZM65.1073 54.6355C66.3272 54.6355 67.3162 53.6465 67.3162 52.4266C67.3162 51.2067 66.3272 50.2178 65.1073 50.2178C63.8874 50.2178 62.8984 51.2067 62.8984 52.4266C62.8984 53.6465 63.8874 54.6355 65.1073 54.6355Z" fill="white"/>
<path fill-rule="evenodd" clip-rule="evenodd" d="M53.5135 106.95C54.2106 106.95 54.7757 106.384 54.7757 105.687C54.7757 104.99 54.2106 104.425 53.5135 104.425C52.8165 104.425 52.2514 104.99 52.2514 105.687C52.2514 106.384 52.8165 106.95 53.5135 106.95ZM53.5135 107.896C54.7335 107.896 55.7224 106.907 55.7224 105.687C55.7224 104.467 54.7335 103.479 53.5135 103.479C52.2936 103.479 51.3047 104.467 51.3047 105.687C51.3047 106.907 52.2936 107.896 53.5135 107.896Z" fill="white"/>
<path fill-rule="evenodd" clip-rule="evenodd" d="M116.92 71.4417C117.617 71.4417 118.182 70.8766 118.182 70.1795C118.182 69.4825 117.617 68.9174 116.92 68.9174C116.223 68.9174 115.658 69.4825 115.658 70.1795C115.658 70.8766 116.223 71.4417 116.92 71.4417ZM116.92 72.3885C118.14 72.3885 119.129 71.3993 119.129 70.1795C119.129 68.9597 118.14 67.9707 116.92 67.9707C115.7 67.9707 114.711 68.9597 114.711 70.1795C114.711 71.3993 115.7 72.3885 116.92 72.3885Z" fill="white"/>
<path d="M50.7221 53.9086C50.8149 53.524 51.362 53.524 51.4548 53.9086L51.7673 55.203C51.8005 55.3404 51.9078 55.4477 52.0452 55.4809L53.3396 55.7934C53.7242 55.8862 53.7242 56.4333 53.3396 56.5261L52.0452 56.8386C51.9078 56.8718 51.8005 56.979 51.7673 57.1165L51.4548 58.4109C51.362 58.7955 50.8149 58.7955 50.7221 58.4109L50.4096 57.1165C50.3764 56.979 50.2692 56.8718 50.1317 56.8386L48.8373 56.5261C48.4527 56.4333 48.4527 55.8862 48.8373 55.7934L50.1317 55.4809C50.2692 55.4477 50.3764 55.3404 50.4096 55.203L50.7221 53.9086Z" fill="white"/>
<path d="M118.078 53.6921C118.179 53.2706 118.779 53.2706 118.881 53.6921L119.223 55.111C119.26 55.2616 119.377 55.3793 119.528 55.4157L120.946 55.7582C121.368 55.8599 121.368 56.4595 120.946 56.5613L119.528 56.9038C119.377 56.9402 119.26 57.0578 119.223 57.2084L118.881 58.6273C118.779 59.0489 118.179 59.0489 118.078 58.6273L117.735 57.2084C117.699 57.0578 117.581 56.9402 117.43 56.9038L116.011 56.5613C115.59 56.4595 115.59 55.8599 116.011 55.7582L117.43 55.4157C117.581 55.3793 117.699 55.2616 117.735 55.111L118.078 53.6921Z" fill="url(#paint2_linear_2916_3883)"/>
<path d="M54.938 115.159C55.4177 115.082 55.8007 115.553 55.6273 116.007L54.4574 119.07C54.2841 119.524 53.6844 119.62 53.378 119.243L51.31 116.698C51.0035 116.321 51.2202 115.754 51.6999 115.677L54.938 115.159Z" fill="url(#paint3_linear_2916_3883)"/>
<path d="M112.528 106.742C112.408 106.271 112.842 105.847 113.31 105.978L116.467 106.866C116.935 106.997 117.085 107.586 116.737 107.925L114.391 110.215C114.043 110.555 113.458 110.39 113.338 109.92L112.528 106.742Z" fill="url(#paint4_linear_2916_3883)"/>
<path d="M101.127 90.7474L72.9942 80.5075C70.8377 79.7227 68.4532 80.8347 67.6683 82.9912L61.0271 101.238C60.2422 103.394 61.3541 105.779 63.5106 106.563L91.6439 116.803C93.8004 117.588 96.1848 116.476 96.9696 114.319L103.611 96.0731C104.396 93.9166 103.284 91.5322 101.127 90.7474Z" fill="url(#paint5_linear_2916_3883)"/>
<path d="M99.9848 96.3993L108.295 84.4286C109.604 82.5435 109.137 79.9544 107.252 78.6457L95.2811 70.3351C93.396 69.0263 90.8069 69.4936 89.4982 71.3786L81.1877 83.3493C79.879 85.2344 80.346 87.8236 82.2311 89.1323L94.2018 97.4428C96.0869 98.7515 98.6761 98.2841 99.9848 96.3993Z" fill="url(#paint6_linear_2916_3883)"/>
<path d="M90.5236 86.872C90.0153 87.5727 89.0385 87.7278 88.3377 87.2191C87.637 86.7108 87.4823 85.7339 87.9907 85.0332C88.4993 84.3325 89.4762 84.1774 90.1769 84.6861C90.8772 85.1948 91.0323 86.1716 90.5236 86.872Z" fill="url(#paint7_linear_2916_3883)"/>
<path d="M95.1473 80.4905L94.1803 79.7891L89.5625 86.1568L90.5295 86.8583L95.1473 80.4905Z" fill="url(#paint8_linear_2916_3883)"/>
<path d="M95.9574 88.0028C95.4487 88.7036 94.4719 88.8586 93.7715 88.3499C93.0708 87.8416 92.9157 86.8648 93.4244 86.1641C93.9327 85.4634 94.9095 85.3083 95.6103 85.817C96.311 86.3257 96.4661 87.3025 95.9574 88.0028Z" fill="url(#paint9_linear_2916_3883)"/>
<path d="M100.592 81.6171L99.6248 80.916L95.0078 87.2845L95.9752 87.9856L100.592 81.6171Z" fill="url(#paint10_linear_2916_3883)"/>
<path d="M100.579 81.6334L93.5664 80.6406L94.1823 79.7881L101.194 80.7841L100.579 81.6334Z" fill="url(#paint11_linear_2916_3883)"/>
<path d="M99.415 83.2379L92.4023 82.2451L93.0183 81.3926L100.033 82.3897L99.415 83.2379Z" fill="url(#paint12_linear_2916_3883)"/>
<path d="M93.8311 69.9024L91.3975 58.6271C90.9134 56.3839 88.7022 54.9579 86.459 55.4421L71.7148 58.6245C69.4717 59.1086 68.0458 61.3196 68.53 63.5629L70.9637 74.8382C71.4478 77.0813 73.6587 78.5074 75.9022 78.0233L90.646 74.8407C92.8895 74.3567 94.3152 72.1458 93.8311 69.9024Z" fill="url(#paint13_linear_2916_3883)"/>
<path d="M93.6382 68.7434L85.3734 62.1074L82.1781 68.4068L78.8121 66.4663L74.1585 72.9442L70.668 73.6964L70.8342 74.4776C71.3951 77.0707 73.9505 78.7203 76.5437 78.1591L90.1187 75.2297C92.7118 74.6689 94.3614 72.1134 93.8002 69.5204L93.6342 68.7434H93.6382Z" fill="url(#paint14_linear_2916_3883)"/>
<path opacity="0.9" d="M74.0753 65.7144C75.3677 65.6812 76.2028 64.3847 75.6999 63.1963C75.4173 62.5315 74.7402 62.0952 74.017 62.1118C72.7249 62.145 71.8894 63.4415 72.3923 64.6299C72.6749 65.2947 73.3521 65.731 74.0753 65.7144Z" fill="white"/>
<path d="M96.5331 113.651C95.9581 116.069 93.4042 117.445 91.0694 116.595L62.9886 106.374C61.0062 105.653 59.8791 103.56 60.3674 101.508L64.355 84.7453C64.9301 82.3279 67.4838 80.9522 69.8187 81.8022L97.8995 92.0229C99.8817 92.7442 101.009 94.8366 100.521 96.8892L96.5331 113.651Z" fill="url(#paint15_linear_2916_3883)"/>
<path d="M165.416 48.088L163.384 47.48C163.048 48.744 162.216 49.352 160.952 49.352C159.176 49.352 158.136 48.056 158.136 45.72C158.136 43.368 159.24 42.088 161 42.088C162.216 42.088 162.92 42.584 163.272 43.864L165.272 43.016C164.68 41.176 163.064 40.28 160.904 40.28C157.816 40.28 155.848 42.328 155.848 45.72C155.848 49.112 157.8 51.16 160.936 51.16C163.08 51.16 164.776 50.152 165.416 48.088ZM171.602 42.84C170.354 42.84 169.538 43.464 169.122 44.568L168.978 43H167.074V51H169.266V46.856C169.266 45.4 170.226 44.696 171.186 44.696C171.602 44.696 171.97 44.792 172.194 44.936L172.466 43.016C172.274 42.904 171.954 42.84 171.602 42.84ZM181.14 46.968C181.14 44.344 179.78 42.84 177.284 42.84C174.708 42.84 173.252 44.376 173.252 47C173.252 49.624 174.756 51.16 177.412 51.16C179.22 51.16 180.452 50.472 180.964 49.192L179.172 48.536C178.948 49.176 178.34 49.528 177.412 49.528C176.34 49.528 175.636 48.984 175.412 47.832H181.076C181.108 47.624 181.14 47.192 181.14 46.968ZM177.268 44.456C178.276 44.456 178.948 45.096 179.124 46.296H175.396C175.572 45.08 176.212 44.456 177.268 44.456ZM190.292 49.672C189.876 49.672 189.7 49.48 189.7 49.064V45.784C189.7 43.8 188.292 42.84 186.068 42.84C184.116 42.84 182.916 43.704 182.58 45.064L184.324 45.8C184.564 44.792 185.236 44.44 186.164 44.44C187.028 44.44 187.524 44.984 187.524 45.832V46.216L185.604 46.584C183.46 46.984 182.484 47.864 182.484 49.112C182.484 50.456 183.444 51.16 184.964 51.16C186.308 51.16 187.316 50.744 187.796 49.96C188.02 50.824 188.676 51.16 189.636 51.16C190.036 51.16 190.388 51.08 190.676 50.936L190.836 49.608C190.676 49.656 190.484 49.672 190.292 49.672ZM185.652 49.672C185.076 49.672 184.74 49.4 184.74 48.888C184.74 48.36 185.108 48.104 185.812 47.944L187.524 47.56V48.392C187.524 49.24 186.484 49.672 185.652 49.672ZM197.007 49.048C196.671 49.336 196.303 49.496 195.775 49.496C195.087 49.496 194.671 49.16 194.671 48.392V44.632H197.263V43H194.671V40.552L192.479 41.16V43H191.023V44.632H192.479V48.744C192.479 50.504 193.567 51.16 195.151 51.16C195.999 51.16 196.831 50.92 197.343 50.504L197.007 49.048ZM206.187 46.968C206.187 44.344 204.827 42.84 202.331 42.84C199.755 42.84 198.299 44.376 198.299 47C198.299 49.624 199.803 51.16 202.459 51.16C204.267 51.16 205.499 50.472 206.01 49.192L204.219 48.536C203.995 49.176 203.387 49.528 202.459 49.528C201.387 49.528 200.683 48.984 200.459 47.832H206.123C206.155 47.624 206.187 47.192 206.187 46.968ZM202.315 44.456C203.323 44.456 203.995 45.096 204.171 46.296H200.443C200.619 45.08 201.259 44.456 202.315 44.456ZM222.182 48.088L220.15 47.48C219.814 48.744 218.982 49.352 217.718 49.352C215.942 49.352 214.902 48.056 214.902 45.72C214.902 43.368 216.006 42.088 217.766 42.088C218.982 42.088 219.686 42.584 220.038 43.864L222.038 43.016C221.446 41.176 219.83 40.28 217.67 40.28C214.582 40.28 212.614 42.328 212.614 45.72C212.614 49.112 214.566 51.16 217.702 51.16C219.846 51.16 221.542 50.152 222.182 48.088ZM227.52 42.84C224.944 42.84 223.424 44.392 223.424 47C223.424 49.608 224.944 51.16 227.52 51.16C230.096 51.16 231.616 49.608 231.616 47C231.616 44.392 230.096 42.84 227.52 42.84ZM227.52 44.472C228.752 44.472 229.424 45.304 229.424 47C229.424 48.696 228.752 49.528 227.52 49.528C226.288 49.528 225.616 48.696 225.616 47C225.616 45.304 226.288 44.472 227.52 44.472ZM235.656 39.496H233.464V48.776C233.464 50.44 234.152 51.16 235.704 51.16C236.232 51.16 236.84 51.032 237.192 50.824L237.384 49.304C237.032 49.432 236.808 49.48 236.44 49.48C235.848 49.48 235.656 49.208 235.656 48.456V39.496ZM240.765 39.496H238.573V48.776C238.573 50.44 239.261 51.16 240.813 51.16C241.341 51.16 241.949 51.032 242.301 50.824L242.493 49.304C242.141 49.432 241.917 49.48 241.549 49.48C240.957 49.48 240.765 49.208 240.765 48.456V39.496ZM251.187 46.968C251.187 44.344 249.827 42.84 247.331 42.84C244.755 42.84 243.299 44.376 243.299 47C243.299 49.624 244.803 51.16 247.459 51.16C249.267 51.16 250.499 50.472 251.01 49.192L249.219 48.536C248.995 49.176 248.387 49.528 247.459 49.528C246.387 49.528 245.683 48.984 245.459 47.832H251.123C251.155 47.624 251.187 47.192 251.187 46.968ZM247.315 44.456C248.323 44.456 248.995 45.096 249.171 46.296H245.443C245.619 45.08 246.259 44.456 247.315 44.456ZM256.691 42.84C254.131 42.84 252.611 44.376 252.611 47C252.611 49.624 254.115 51.16 256.771 51.16C258.803 51.16 260.051 50.168 260.387 48.744L258.403 48.104C258.243 49.016 257.699 49.528 256.739 49.528C255.555 49.528 254.803 48.728 254.803 47.016C254.803 45.336 255.507 44.472 256.755 44.472C257.603 44.472 258.115 44.968 258.307 45.928L260.355 45.192C259.971 43.88 258.947 42.84 256.691 42.84ZM267.288 49.048C266.952 49.336 266.584 49.496 266.056 49.496C265.368 49.496 264.952 49.16 264.952 48.392V44.632H267.544V43H264.952V40.552L262.76 41.16V43H261.304V44.632H262.76V48.744C262.76 50.504 263.848 51.16 265.432 51.16C266.28 51.16 267.112 50.92 267.624 50.504L267.288 49.048ZM270.1 41.848C271.012 41.848 271.46 41.464 271.46 40.68C271.46 39.896 271.012 39.496 270.1 39.496C269.188 39.496 268.74 39.896 268.74 40.68C268.74 41.464 269.188 41.848 270.1 41.848ZM271.188 43H268.996V51H271.188V43ZM277.191 42.84C274.615 42.84 273.095 44.392 273.095 47C273.095 49.608 274.615 51.16 277.191 51.16C279.767 51.16 281.287 49.608 281.287 47C281.287 44.392 279.767 42.84 277.191 42.84ZM277.191 44.472C278.423 44.472 279.095 45.304 279.095 47C279.095 48.696 278.423 49.528 277.191 49.528C275.959 49.528 275.287 48.696 275.287 47C275.287 45.304 275.959 44.472 277.191 44.472ZM287.936 42.84C286.736 42.84 285.744 43.352 285.216 44.424L285.136 43H283.168V51H285.36V46.776C285.36 45.176 286.272 44.568 287.2 44.568C288.032 44.568 288.624 45.016 288.624 46.392V51H290.816V45.752C290.816 43.816 289.6 42.84 287.936 42.84Z" fill="white"/>
<path d="M162.428 72.08H161.468V76.808C161.468 78.464 160.796 79.22 159.32 79.22C157.844 79.22 157.172 78.464 157.172 76.808V72.08H156.212V77.048C156.212 79.088 157.328 80.12 159.32 80.12C161.324 80.12 162.428 79.088 162.428 77.048V72.08ZM167.646 73.88C166.698 73.88 165.942 74.36 165.594 75.044L165.534 74H164.694V82.52H165.654V79.064C166.026 79.688 166.746 80.12 167.646 80.12C169.314 80.12 170.382 78.956 170.382 77C170.382 75.044 169.314 73.88 167.646 73.88ZM167.538 79.28C166.398 79.28 165.654 78.428 165.654 77.072V76.928C165.654 75.572 166.398 74.72 167.538 74.72C168.714 74.72 169.422 75.608 169.422 77C169.422 78.392 168.714 79.28 167.538 79.28ZM173.165 71.24H172.205V78.512C172.205 79.604 172.673 80.12 173.645 80.12C173.957 80.12 174.281 80.06 174.533 79.952L174.689 79.028C174.341 79.16 174.137 79.196 173.813 79.196C173.321 79.196 173.165 79.004 173.165 78.392V71.24ZM178.453 73.88C176.641 73.88 175.549 75.056 175.549 77C175.549 78.944 176.641 80.12 178.453 80.12C180.265 80.12 181.357 78.944 181.357 77C181.357 75.056 180.265 73.88 178.453 73.88ZM178.453 74.708C179.665 74.708 180.397 75.572 180.397 77C180.397 78.428 179.665 79.292 178.453 79.292C177.241 79.292 176.509 78.428 176.509 77C176.509 75.572 177.241 74.708 178.453 74.708ZM188.141 79.304C187.805 79.304 187.685 79.16 187.685 78.872V75.92C187.685 74.528 186.689 73.88 185.321 73.88C184.157 73.88 183.209 74.456 182.897 75.344L183.605 75.86C183.929 75.104 184.529 74.72 185.321 74.72C186.221 74.72 186.725 75.248 186.725 76.04V76.376L185.129 76.64C183.581 76.904 182.789 77.612 182.789 78.512C182.789 79.592 183.701 80.12 184.829 80.12C185.597 80.12 186.377 79.796 186.761 79.232C186.869 79.904 187.253 80.12 187.841 80.12C188.141 80.12 188.393 80.06 188.561 80L188.621 79.244C188.477 79.28 188.297 79.304 188.141 79.304ZM184.877 79.28C184.193 79.28 183.785 79.016 183.785 78.512C183.785 77.948 184.325 77.6 185.381 77.408L186.725 77.156V77.984C186.725 78.776 185.837 79.28 184.877 79.28ZM194.386 71.24V74.936C194.014 74.312 193.294 73.88 192.394 73.88C190.726 73.88 189.658 75.044 189.658 77C189.658 78.956 190.726 80.12 192.394 80.12C193.342 80.12 194.098 79.64 194.446 78.956L194.506 80H195.346V71.24H194.386ZM192.502 79.28C191.326 79.28 190.618 78.392 190.618 77C190.618 75.608 191.326 74.72 192.502 74.72C193.642 74.72 194.386 75.572 194.386 76.928V77.072C194.386 78.428 193.642 79.28 192.502 79.28ZM206.462 74H205.43L204.026 77.792L203.594 78.98L203.222 77.912L201.722 74H200.63L203.138 79.988L202.826 80.768C202.526 81.56 202.154 81.74 201.734 81.74C201.398 81.74 201.038 81.644 200.762 81.26L200.426 82.076C200.762 82.436 201.146 82.58 201.746 82.58C202.634 82.58 203.174 82.184 203.642 81.008L206.462 74ZM210.316 73.88C208.504 73.88 207.412 75.056 207.412 77C207.412 78.944 208.504 80.12 210.316 80.12C212.128 80.12 213.22 78.944 213.22 77C213.22 75.056 212.128 73.88 210.316 73.88ZM210.316 74.708C211.528 74.708 212.26 75.572 212.26 77C212.26 78.428 211.528 79.292 210.316 79.292C209.104 79.292 208.372 78.428 208.372 77C208.372 75.572 209.104 74.708 210.316 74.708ZM219.321 74V77.264C219.321 78.68 218.421 79.28 217.401 79.28C216.537 79.28 215.985 78.908 215.985 77.672V74H215.025V77.924C215.025 79.508 216.045 80.12 217.233 80.12C218.193 80.12 218.961 79.808 219.381 79.088L219.441 80H220.281V74H219.321ZM225.346 73.88C224.41 73.88 223.762 74.252 223.426 74.984L223.294 74H222.514V80H223.474V76.76C223.474 75.416 224.338 74.78 225.058 74.78C225.37 74.78 225.634 74.84 225.814 74.936L226.006 74C225.826 73.904 225.55 73.88 225.346 73.88ZM238.596 74L237.084 78.884L235.452 74H234.492L232.86 78.884L231.348 74H230.28L232.368 80H233.328L234.924 75.224L236.616 80H237.576L239.664 74H238.596ZM243.574 73.88C241.762 73.88 240.67 75.056 240.67 77C240.67 78.944 241.762 80.12 243.574 80.12C245.386 80.12 246.478 78.944 246.478 77C246.478 75.056 245.386 73.88 243.574 73.88ZM243.574 74.708C244.786 74.708 245.518 75.572 245.518 77C245.518 78.428 244.786 79.292 243.574 79.292C242.362 79.292 241.63 78.428 241.63 77C241.63 75.572 242.362 74.708 243.574 74.708ZM251.175 73.88C250.239 73.88 249.591 74.252 249.255 74.984L249.123 74H248.343V80H249.303V76.76C249.303 75.416 250.167 74.78 250.887 74.78C251.199 74.78 251.463 74.84 251.643 74.936L251.835 74C251.655 73.904 251.379 73.88 251.175 73.88ZM257.489 80H258.653L256.169 76.34L258.509 74H257.309L254.201 77.108V71.24H253.241V80H254.201V78.308L255.473 77.036L257.489 80ZM268.79 79.304C268.454 79.304 268.334 79.16 268.334 78.872V75.92C268.334 74.528 267.338 73.88 265.97 73.88C264.806 73.88 263.858 74.456 263.546 75.344L264.254 75.86C264.578 75.104 265.178 74.72 265.97 74.72C266.87 74.72 267.374 75.248 267.374 76.04V76.376L265.778 76.64C264.23 76.904 263.438 77.612 263.438 78.512C263.438 79.592 264.35 80.12 265.478 80.12C266.246 80.12 267.026 79.796 267.41 79.232C267.518 79.904 267.902 80.12 268.49 80.12C268.79 80.12 269.042 80.06 269.21 80L269.27 79.244C269.126 79.28 268.946 79.304 268.79 79.304ZM265.526 79.28C264.842 79.28 264.434 79.016 264.434 78.512C264.434 77.948 264.974 77.6 266.03 77.408L267.374 77.156V77.984C267.374 78.776 266.486 79.28 265.526 79.28ZM273.583 73.88C272.755 73.88 271.987 74.18 271.567 74.936L271.507 74H270.667V80H271.627V76.808C271.627 75.272 272.611 74.72 273.487 74.72C274.315 74.72 274.963 75.164 274.963 76.496V80H275.923V76.16C275.923 74.612 274.867 73.88 273.583 73.88ZM282.464 71.24V74.936C282.092 74.312 281.372 73.88 280.472 73.88C278.804 73.88 277.736 75.044 277.736 77C277.736 78.956 278.804 80.12 280.472 80.12C281.42 80.12 282.176 79.64 282.524 78.956L282.584 80H283.424V71.24H282.464ZM280.58 79.28C279.404 79.28 278.696 78.392 278.696 77C278.696 75.608 279.404 74.72 280.58 74.72C281.72 74.72 282.464 75.572 282.464 76.928V77.072C282.464 78.428 281.72 79.28 280.58 79.28ZM158.156 97.12C159.692 97.12 160.664 96.388 160.664 95.344C160.664 94.36 160.064 93.856 158.384 93.58C157.16 93.376 156.764 93.112 156.764 92.596C156.764 92.152 157.364 91.72 158.168 91.72C158.924 91.72 159.464 92.008 159.728 92.8L160.544 92.32C160.208 91.336 159.452 90.88 158.168 90.88C156.704 90.88 155.804 91.708 155.804 92.68C155.804 93.688 156.428 94.156 158.132 94.468C159.332 94.684 159.704 94.948 159.704 95.392C159.704 95.884 159.236 96.28 158.252 96.28C157.388 96.28 156.644 95.956 156.356 95.224L155.576 95.764C156.032 96.688 157.052 97.12 158.156 97.12ZM167.592 93.688C167.592 92.14 166.644 90.88 164.904 90.88C163.092 90.88 162.072 92.056 162.072 94C162.072 95.944 163.164 97.12 164.976 97.12C166.272 97.12 167.016 96.628 167.472 95.812L166.668 95.392C166.452 95.968 165.852 96.28 164.976 96.28C163.872 96.28 163.14 95.572 163.02 94.36H167.544C167.568 94.192 167.592 93.964 167.592 93.688ZM164.904 91.72C165.924 91.72 166.536 92.404 166.668 93.508H163.032C163.176 92.38 163.836 91.72 164.904 91.72ZM172.577 95.776C172.301 96.052 171.989 96.22 171.557 96.22C171.029 96.22 170.657 95.932 170.657 95.344V91.828H172.877V91H170.657V89.296L169.697 89.56V91H168.497V91.828H169.697V95.512C169.709 96.676 170.477 97.12 171.365 97.12C172.025 97.12 172.541 96.916 172.913 96.58L172.577 95.776ZM178.504 91V94.264C178.504 95.68 177.604 96.28 176.584 96.28C175.72 96.28 175.168 95.908 175.168 94.672V91H174.208V94.924C174.208 96.508 175.228 97.12 176.416 97.12C177.376 97.12 178.144 96.808 178.564 96.088L178.624 97H179.464V91H178.504ZM184.65 90.88C183.702 90.88 182.946 91.36 182.598 92.044L182.538 91H181.698V99.52H182.658V96.064C183.03 96.688 183.75 97.12 184.65 97.12C186.318 97.12 187.386 95.956 187.386 94C187.386 92.044 186.318 90.88 184.65 90.88ZM184.542 96.28C183.402 96.28 182.658 95.428 182.658 94.072V93.928C182.658 92.572 183.402 91.72 184.542 91.72C185.718 91.72 186.426 92.608 186.426 94C186.426 95.392 185.718 96.28 184.542 96.28ZM198.142 91H197.11L195.706 94.792L195.274 95.98L194.902 94.912L193.402 91H192.31L194.818 96.988L194.506 97.768C194.206 98.56 193.834 98.74 193.414 98.74C193.078 98.74 192.718 98.644 192.442 98.26L192.106 99.076C192.442 99.436 192.826 99.58 193.426 99.58C194.314 99.58 194.854 99.184 195.322 98.008L198.142 91ZM201.996 90.88C200.184 90.88 199.092 92.056 199.092 94C199.092 95.944 200.184 97.12 201.996 97.12C203.808 97.12 204.9 95.944 204.9 94C204.9 92.056 203.808 90.88 201.996 90.88ZM201.996 91.708C203.208 91.708 203.94 92.572 203.94 94C203.94 95.428 203.208 96.292 201.996 96.292C200.784 96.292 200.052 95.428 200.052 94C200.052 92.572 200.784 91.708 201.996 91.708ZM211 91V94.264C211 95.68 210.1 96.28 209.08 96.28C208.216 96.28 207.664 95.908 207.664 94.672V91H206.704V94.924C206.704 96.508 207.724 97.12 208.912 97.12C209.872 97.12 210.64 96.808 211.06 96.088L211.12 97H211.96V91H211ZM217.026 90.88C216.09 90.88 215.442 91.252 215.106 91.984L214.974 91H214.194V97H215.154V93.76C215.154 92.416 216.018 91.78 216.738 91.78C217.05 91.78 217.314 91.84 217.494 91.936L217.686 91C217.506 90.904 217.23 90.88 217.026 90.88ZM225.433 90.88C223.621 90.88 222.529 92.056 222.529 94C222.529 95.944 223.621 97.12 225.433 97.12C226.705 97.12 227.569 96.46 227.977 95.356L227.089 95.044C226.909 95.836 226.345 96.28 225.409 96.28C224.209 96.28 223.489 95.428 223.489 94C223.489 92.572 224.209 91.72 225.409 91.72C226.237 91.72 226.753 92.14 227.005 92.908L227.917 92.476C227.473 91.492 226.669 90.88 225.433 90.88ZM232.207 90.88C230.395 90.88 229.303 92.056 229.303 94C229.303 95.944 230.395 97.12 232.207 97.12C234.019 97.12 235.111 95.944 235.111 94C235.111 92.056 234.019 90.88 232.207 90.88ZM232.207 91.708C233.419 91.708 234.151 92.572 234.151 94C234.151 95.428 233.419 96.292 232.207 96.292C230.995 96.292 230.263 95.428 230.263 94C230.263 92.572 230.995 91.708 232.207 91.708ZM237.887 88.24H236.927V95.512C236.927 96.604 237.395 97.12 238.367 97.12C238.679 97.12 239.003 97.06 239.255 96.952L239.411 96.028C239.063 96.16 238.859 96.196 238.535 96.196C238.043 96.196 237.887 96.004 237.887 95.392V88.24ZM241.555 88.24H240.595V95.512C240.595 96.604 241.063 97.12 242.035 97.12C242.347 97.12 242.671 97.06 242.923 96.952L243.079 96.028C242.731 96.16 242.527 96.196 242.203 96.196C241.711 96.196 241.555 96.004 241.555 95.392V88.24ZM249.459 93.688C249.459 92.14 248.511 90.88 246.771 90.88C244.959 90.88 243.939 92.056 243.939 94C243.939 95.944 245.031 97.12 246.843 97.12C248.139 97.12 248.883 96.628 249.339 95.812L248.535 95.392C248.319 95.968 247.719 96.28 246.843 96.28C245.739 96.28 245.007 95.572 244.887 94.36H249.411C249.435 94.192 249.459 93.964 249.459 93.688ZM246.771 91.72C247.791 91.72 248.403 92.404 248.535 93.508H244.899C245.043 92.38 245.703 91.72 246.771 91.72ZM253.816 90.88C252.004 90.88 250.912 92.056 250.912 94C250.912 95.944 252.004 97.12 253.816 97.12C255.088 97.12 255.952 96.46 256.36 95.356L255.472 95.044C255.292 95.836 254.728 96.28 253.792 96.28C252.592 96.28 251.872 95.428 251.872 94C251.872 92.572 252.592 91.72 253.792 91.72C254.62 91.72 255.136 92.14 255.388 92.908L256.3 92.476C255.856 91.492 255.052 90.88 253.816 90.88ZM261.393 95.776C261.117 96.052 260.805 96.22 260.373 96.22C259.845 96.22 259.473 95.932 259.473 95.344V91.828H261.693V91H259.473V89.296L258.513 89.56V91H257.313V91.828H258.513V95.512C258.525 96.676 259.293 97.12 260.181 97.12C260.841 97.12 261.357 96.916 261.729 96.58L261.393 95.776ZM263.565 89.848C263.997 89.848 264.285 89.56 264.285 89.128C264.285 88.696 263.997 88.408 263.565 88.408C263.133 88.408 262.845 88.696 262.845 89.128C262.845 89.56 263.133 89.848 263.565 89.848ZM264.045 91H263.085V97H264.045V91ZM268.804 90.88C266.992 90.88 265.9 92.056 265.9 94C265.9 95.944 266.992 97.12 268.804 97.12C270.616 97.12 271.708 95.944 271.708 94C271.708 92.056 270.616 90.88 268.804 90.88ZM268.804 91.708C270.016 91.708 270.748 92.572 270.748 94C270.748 95.428 270.016 96.292 268.804 96.292C267.592 96.292 266.86 95.428 266.86 94C266.86 92.572 267.592 91.708 268.804 91.708ZM276.489 90.88C275.661 90.88 274.893 91.18 274.473 91.936L274.413 91H273.573V97H274.533V93.808C274.533 92.272 275.517 91.72 276.393 91.72C277.221 91.72 277.869 92.164 277.869 93.496V97H278.829V93.16C278.829 91.612 277.773 90.88 276.489 90.88ZM281.483 95.56C281.015 95.56 280.703 95.872 280.703 96.34C280.703 96.808 281.015 97.12 281.483 97.12C281.951 97.12 282.263 96.808 282.263 96.34C282.263 95.872 281.951 95.56 281.483 95.56ZM293.272 97H294.292L291.22 89.08H290.08L286.996 97H288.004L288.844 94.804H292.432L293.272 97ZM289.192 93.904L290.272 91.06L290.62 89.992H290.644L291.016 91.096L292.084 93.904H289.192ZM299.984 88.24V91.936C299.612 91.312 298.892 90.88 297.992 90.88C296.324 90.88 295.256 92.044 295.256 94C295.256 95.956 296.324 97.12 297.992 97.12C298.94 97.12 299.696 96.64 300.044 95.956L300.104 97H300.944V88.24H299.984ZM298.1 96.28C296.924 96.28 296.216 95.392 296.216 94C296.216 92.608 296.924 91.72 298.1 91.72C299.24 91.72 299.984 92.572 299.984 93.928V94.072C299.984 95.428 299.24 96.28 298.1 96.28ZM307.543 88.24V91.936C307.171 91.312 306.451 90.88 305.551 90.88C303.883 90.88 302.815 92.044 302.815 94C302.815 95.956 303.883 97.12 305.551 97.12C306.499 97.12 307.255 96.64 307.603 95.956L307.663 97H308.503V88.24H307.543ZM305.659 96.28C304.483 96.28 303.775 95.392 303.775 94C303.775 92.608 304.483 91.72 305.659 91.72C306.799 91.72 307.543 92.572 307.543 93.928V94.072C307.543 95.428 306.799 96.28 305.659 96.28ZM161.036 113.304C160.7 113.304 160.58 113.16 160.58 112.872V109.92C160.58 108.528 159.584 107.88 158.216 107.88C157.052 107.88 156.104 108.456 155.792 109.344L156.5 109.86C156.824 109.104 157.424 108.72 158.216 108.72C159.116 108.72 159.62 109.248 159.62 110.04V110.376L158.024 110.64C156.476 110.904 155.684 111.612 155.684 112.512C155.684 113.592 156.596 114.12 157.724 114.12C158.492 114.12 159.272 113.796 159.656 113.232C159.764 113.904 160.148 114.12 160.736 114.12C161.036 114.12 161.288 114.06 161.456 114L161.516 113.244C161.372 113.28 161.192 113.304 161.036 113.304ZM157.772 113.28C157.088 113.28 156.68 113.016 156.68 112.512C156.68 111.948 157.22 111.6 158.276 111.408L159.62 111.156V111.984C159.62 112.776 158.732 113.28 157.772 113.28ZM171.089 105.24V108.936C170.717 108.312 169.997 107.88 169.097 107.88C167.429 107.88 166.361 109.044 166.361 111C166.361 112.956 167.429 114.12 169.097 114.12C170.045 114.12 170.801 113.64 171.149 112.956L171.209 114H172.049V105.24H171.089ZM169.205 113.28C168.029 113.28 167.321 112.392 167.321 111C167.321 109.608 168.029 108.72 169.205 108.72C170.345 108.72 171.089 109.572 171.089 110.928V111.072C171.089 112.428 170.345 113.28 169.205 113.28ZM179.428 110.688C179.428 109.14 178.48 107.88 176.74 107.88C174.928 107.88 173.908 109.056 173.908 111C173.908 112.944 175 114.12 176.812 114.12C178.108 114.12 178.852 113.628 179.308 112.812L178.504 112.392C178.288 112.968 177.688 113.28 176.812 113.28C175.708 113.28 174.976 112.572 174.856 111.36H179.38C179.404 111.192 179.428 110.964 179.428 110.688ZM176.74 108.72C177.76 108.72 178.372 109.404 178.504 110.508H174.868C175.012 109.38 175.672 108.72 176.74 108.72ZM183.293 114.12C184.829 114.12 185.801 113.388 185.801 112.344C185.801 111.36 185.201 110.856 183.521 110.58C182.297 110.376 181.901 110.112 181.901 109.596C181.901 109.152 182.501 108.72 183.305 108.72C184.061 108.72 184.601 109.008 184.865 109.8L185.681 109.32C185.345 108.336 184.589 107.88 183.305 107.88C181.841 107.88 180.941 108.708 180.941 109.68C180.941 110.688 181.565 111.156 183.269 111.468C184.469 111.684 184.841 111.948 184.841 112.392C184.841 112.884 184.373 113.28 183.389 113.28C182.525 113.28 181.781 112.956 181.493 112.224L180.713 112.764C181.169 113.688 182.189 114.12 183.293 114.12ZM190.113 107.88C188.301 107.88 187.209 109.056 187.209 111C187.209 112.944 188.301 114.12 190.113 114.12C191.385 114.12 192.249 113.46 192.657 112.356L191.769 112.044C191.589 112.836 191.025 113.28 190.089 113.28C188.889 113.28 188.169 112.428 188.169 111C188.169 109.572 188.889 108.72 190.089 108.72C190.917 108.72 191.433 109.14 191.685 109.908L192.597 109.476C192.153 108.492 191.349 107.88 190.113 107.88ZM197.186 107.88C196.25 107.88 195.602 108.252 195.266 108.984L195.134 108H194.354V114H195.314V110.76C195.314 109.416 196.178 108.78 196.898 108.78C197.21 108.78 197.474 108.84 197.654 108.936L197.846 108C197.666 107.904 197.39 107.88 197.186 107.88ZM199.733 106.848C200.165 106.848 200.453 106.56 200.453 106.128C200.453 105.696 200.165 105.408 199.733 105.408C199.301 105.408 199.013 105.696 199.013 106.128C199.013 106.56 199.301 106.848 199.733 106.848ZM200.213 108H199.253V114H200.213V108ZM205.392 107.88C204.444 107.88 203.688 108.36 203.34 109.044L203.28 108H202.44V116.52H203.4V113.064C203.772 113.688 204.492 114.12 205.392 114.12C207.06 114.12 208.128 112.956 208.128 111C208.128 109.044 207.06 107.88 205.392 107.88ZM205.284 113.28C204.144 113.28 203.4 112.428 203.4 111.072V110.928C203.4 109.572 204.144 108.72 205.284 108.72C206.46 108.72 207.168 109.608 207.168 111C207.168 112.392 206.46 113.28 205.284 113.28ZM213.229 112.776C212.953 113.052 212.641 113.22 212.209 113.22C211.681 113.22 211.309 112.932 211.309 112.344V108.828H213.529V108H211.309V106.296L210.349 106.56V108H209.149V108.828H210.349V112.512C210.361 113.676 211.129 114.12 212.017 114.12C212.677 114.12 213.193 113.916 213.565 113.58L213.229 112.776ZM215.401 106.848C215.833 106.848 216.121 106.56 216.121 106.128C216.121 105.696 215.833 105.408 215.401 105.408C214.969 105.408 214.681 105.696 214.681 106.128C214.681 106.56 214.969 106.848 215.401 106.848ZM215.881 108H214.921V114H215.881V108ZM220.64 107.88C218.828 107.88 217.736 109.056 217.736 111C217.736 112.944 218.828 114.12 220.64 114.12C222.452 114.12 223.544 112.944 223.544 111C223.544 109.056 222.452 107.88 220.64 107.88ZM220.64 108.708C221.852 108.708 222.584 109.572 222.584 111C222.584 112.428 221.852 113.292 220.64 113.292C219.428 113.292 218.696 112.428 218.696 111C218.696 109.572 219.428 108.708 220.64 108.708ZM228.325 107.88C227.497 107.88 226.729 108.18 226.309 108.936L226.249 108H225.409V114H226.369V110.808C226.369 109.272 227.353 108.72 228.229 108.72C229.057 108.72 229.705 109.164 229.705 110.496V114H230.665V110.16C230.665 108.612 229.609 107.88 228.325 107.88ZM233.319 112.56C232.887 112.56 232.539 112.932 232.539 113.364C232.539 113.88 232.911 114.12 233.199 114.12C233.391 114.12 233.475 114.084 233.535 114.036L233.583 114.06C233.475 114.564 233.055 115.068 232.407 115.284L232.911 115.752C233.823 115.32 234.219 114.528 234.219 113.724C234.219 113.04 233.883 112.56 233.319 112.56ZM242.156 114.12C243.692 114.12 244.664 113.388 244.664 112.344C244.664 111.36 244.064 110.856 242.384 110.58C241.16 110.376 240.764 110.112 240.764 109.596C240.764 109.152 241.364 108.72 242.168 108.72C242.924 108.72 243.464 109.008 243.728 109.8L244.544 109.32C244.208 108.336 243.452 107.88 242.168 107.88C240.704 107.88 239.804 108.708 239.804 109.68C239.804 110.688 240.428 111.156 242.132 111.468C243.332 111.684 243.704 111.948 243.704 112.392C243.704 112.884 243.236 113.28 242.252 113.28C241.388 113.28 240.644 112.956 240.356 112.224L239.576 112.764C240.032 113.688 241.052 114.12 242.156 114.12ZM248.976 107.88C247.164 107.88 246.072 109.056 246.072 111C246.072 112.944 247.164 114.12 248.976 114.12C250.788 114.12 251.88 112.944 251.88 111C251.88 109.056 250.788 107.88 248.976 107.88ZM248.976 108.708C250.188 108.708 250.92 109.572 250.92 111C250.92 112.428 250.188 113.292 248.976 113.292C247.764 113.292 247.032 112.428 247.032 111C247.032 109.572 247.764 108.708 248.976 108.708ZM256.277 107.88C254.465 107.88 253.373 109.056 253.373 111C253.373 112.944 254.465 114.12 256.277 114.12C257.549 114.12 258.413 113.46 258.821 112.356L257.933 112.044C257.753 112.836 257.189 113.28 256.253 113.28C255.053 113.28 254.333 112.428 254.333 111C254.333 109.572 255.053 108.72 256.253 108.72C257.081 108.72 257.597 109.14 257.849 109.908L258.761 109.476C258.317 108.492 257.513 107.88 256.277 107.88ZM260.998 106.848C261.43 106.848 261.718 106.56 261.718 106.128C261.718 105.696 261.43 105.408 260.998 105.408C260.566 105.408 260.278 105.696 260.278 106.128C260.278 106.56 260.566 106.848 260.998 106.848ZM261.478 108H260.518V114H261.478V108ZM268.626 113.304C268.29 113.304 268.17 113.16 268.17 112.872V109.92C268.17 108.528 267.174 107.88 265.806 107.88C264.642 107.88 263.694 108.456 263.382 109.344L264.09 109.86C264.414 109.104 265.014 108.72 265.806 108.72C266.706 108.72 267.21 109.248 267.21 110.04V110.376L265.614 110.64C264.066 110.904 263.274 111.612 263.274 112.512C263.274 113.592 264.186 114.12 265.314 114.12C266.082 114.12 266.862 113.796 267.246 113.232C267.354 113.904 267.738 114.12 268.326 114.12C268.626 114.12 268.878 114.06 269.046 114L269.106 113.244C268.962 113.28 268.782 113.304 268.626 113.304ZM265.362 113.28C264.678 113.28 264.27 113.016 264.27 112.512C264.27 111.948 264.81 111.6 265.866 111.408L267.21 111.156V111.984C267.21 112.776 266.322 113.28 265.362 113.28ZM271.415 105.24H270.455V112.512C270.455 113.604 270.923 114.12 271.895 114.12C272.207 114.12 272.531 114.06 272.783 113.952L272.939 113.028C272.591 113.16 272.387 113.196 272.063 113.196C271.571 113.196 271.415 113.004 271.415 112.392V105.24ZM278.751 105.24H277.791V112.512C277.791 113.604 278.259 114.12 279.231 114.12C279.543 114.12 279.867 114.06 280.119 113.952L280.275 113.028C279.927 113.16 279.723 113.196 279.399 113.196C278.907 113.196 278.751 113.004 278.751 112.392V105.24ZM281.987 106.848C282.419 106.848 282.707 106.56 282.707 106.128C282.707 105.696 282.419 105.408 281.987 105.408C281.555 105.408 281.267 105.696 281.267 106.128C281.267 106.56 281.555 106.848 281.987 106.848ZM282.467 108H281.507V114H282.467V108ZM287.61 107.88C286.782 107.88 286.014 108.18 285.594 108.936L285.534 108H284.694V114H285.654V110.808C285.654 109.272 286.638 108.72 287.514 108.72C288.342 108.72 288.99 109.164 288.99 110.496V114H289.95V110.16C289.95 108.612 288.894 107.88 287.61 107.88ZM296.372 114H297.536L295.052 110.34L297.392 108H296.192L293.084 111.108V105.24H292.124V114H293.084V112.308L294.356 111.036L296.372 114ZM300.844 114.12C302.38 114.12 303.352 113.388 303.352 112.344C303.352 111.36 302.752 110.856 301.072 110.58C299.848 110.376 299.451 110.112 299.451 109.596C299.451 109.152 300.052 108.72 300.855 108.72C301.612 108.72 302.152 109.008 302.416 109.8L303.232 109.32C302.896 108.336 302.14 107.88 300.855 107.88C299.392 107.88 298.492 108.708 298.492 109.68C298.492 110.688 299.116 111.156 300.82 111.468C302.02 111.684 302.392 111.948 302.392 112.392C302.392 112.884 301.924 113.28 300.94 113.28C300.076 113.28 299.332 112.956 299.044 112.224L298.264 112.764C298.72 113.688 299.74 114.12 300.844 114.12ZM161.036 130.304C160.7 130.304 160.58 130.16 160.58 129.872V126.92C160.58 125.528 159.584 124.88 158.216 124.88C157.052 124.88 156.104 125.456 155.792 126.344L156.5 126.86C156.824 126.104 157.424 125.72 158.216 125.72C159.116 125.72 159.62 126.248 159.62 127.04V127.376L158.024 127.64C156.476 127.904 155.684 128.612 155.684 129.512C155.684 130.592 156.596 131.12 157.724 131.12C158.492 131.12 159.272 130.796 159.656 130.232C159.764 130.904 160.148 131.12 160.736 131.12C161.036 131.12 161.288 131.06 161.456 131L161.516 130.244C161.372 130.28 161.192 130.304 161.036 130.304ZM157.772 130.28C157.088 130.28 156.68 130.016 156.68 129.512C156.68 128.948 157.22 128.6 158.276 128.408L159.62 128.156V128.984C159.62 129.776 158.732 130.28 157.772 130.28ZM165.829 124.88C165.001 124.88 164.233 125.18 163.813 125.936L163.753 125H162.913V131H163.873V127.808C163.873 126.272 164.857 125.72 165.733 125.72C166.561 125.72 167.209 126.164 167.209 127.496V131H168.169V127.16C168.169 125.612 167.113 124.88 165.829 124.88ZM174.711 122.24V125.936C174.339 125.312 173.619 124.88 172.719 124.88C171.051 124.88 169.983 126.044 169.983 128C169.983 129.956 171.051 131.12 172.719 131.12C173.667 131.12 174.423 130.64 174.771 129.956L174.831 131H175.671V122.24H174.711ZM172.827 130.28C171.651 130.28 170.943 129.392 170.943 128C170.943 126.608 171.651 125.72 172.827 125.72C173.967 125.72 174.711 126.572 174.711 127.928V128.072C174.711 129.428 173.967 130.28 172.827 130.28ZM184.288 123.056C184.564 123.056 184.78 123.116 184.972 123.236L185.224 122.456C185.008 122.276 184.624 122.18 184.204 122.18C182.884 122.18 182.236 122.924 182.236 123.992V125H181.036V125.828H182.236V131H183.196V125.828H185.2V125H183.196V124.088C183.196 123.368 183.592 123.056 184.288 123.056ZM188.044 130.196C187.552 130.196 187.396 130.004 187.396 129.392V122.24H186.436V129.512C186.436 130.604 186.904 131.12 187.876 131.12C188.188 131.12 188.512 131.06 188.764 130.952L188.92 130.028C188.572 130.16 188.368 130.196 188.044 130.196ZM192.691 124.88C190.879 124.88 189.787 126.056 189.787 128C189.787 129.944 190.879 131.12 192.691 131.12C194.503 131.12 195.595 129.944 195.595 128C195.595 126.056 194.503 124.88 192.691 124.88ZM192.691 125.708C193.903 125.708 194.635 126.572 194.635 128C194.635 129.428 193.903 130.292 192.691 130.292C191.479 130.292 190.747 129.428 190.747 128C190.747 126.572 191.479 125.708 192.691 125.708ZM199.992 124.88C198.18 124.88 197.088 126.056 197.088 128C197.088 129.944 198.18 131.12 199.992 131.12C201.804 131.12 202.896 129.944 202.896 128C202.896 126.056 201.804 124.88 199.992 124.88ZM199.992 125.708C201.204 125.708 201.936 126.572 201.936 128C201.936 129.428 201.204 130.292 199.992 130.292C198.78 130.292 198.048 129.428 198.048 128C198.048 126.572 198.78 125.708 199.992 125.708ZM207.593 124.88C206.657 124.88 206.009 125.252 205.673 125.984L205.541 125H204.761V131H205.721V127.76C205.721 126.416 206.585 125.78 207.305 125.78C207.617 125.78 207.881 125.84 208.061 125.936L208.253 125C208.073 124.904 207.797 124.88 207.593 124.88ZM216.42 124.88C215.472 124.88 214.716 125.36 214.368 126.044L214.308 125H213.468V133.52H214.428V130.064C214.8 130.688 215.52 131.12 216.42 131.12C218.088 131.12 219.156 129.956 219.156 128C219.156 126.044 218.088 124.88 216.42 124.88ZM216.312 130.28C215.172 130.28 214.428 129.428 214.428 128.072V127.928C214.428 126.572 215.172 125.72 216.312 125.72C217.488 125.72 218.196 126.608 218.196 128C218.196 129.392 217.488 130.28 216.312 130.28ZM223.858 124.88C222.922 124.88 222.274 125.252 221.938 125.984L221.806 125H221.026V131H221.986V127.76C221.986 126.416 222.85 125.78 223.57 125.78C223.882 125.78 224.146 125.84 224.326 125.936L224.518 125C224.338 124.904 224.062 124.88 223.858 124.88ZM226.405 123.848C226.837 123.848 227.125 123.56 227.125 123.128C227.125 122.696 226.837 122.408 226.405 122.408C225.973 122.408 225.685 122.696 225.685 123.128C225.685 123.56 225.973 123.848 226.405 123.848ZM226.885 125H225.925V131H226.885V125ZM231.644 124.88C229.832 124.88 228.74 126.056 228.74 128C228.74 129.944 229.832 131.12 231.644 131.12C232.916 131.12 233.78 130.46 234.188 129.356L233.3 129.044C233.12 129.836 232.556 130.28 231.62 130.28C230.42 130.28 229.7 129.428 229.7 128C229.7 126.572 230.42 125.72 231.62 125.72C232.448 125.72 232.964 126.14 233.216 126.908L234.128 126.476C233.684 125.492 232.88 124.88 231.644 124.88ZM241.034 127.688C241.034 126.14 240.086 124.88 238.346 124.88C236.534 124.88 235.514 126.056 235.514 128C235.514 129.944 236.606 131.12 238.418 131.12C239.714 131.12 240.458 130.628 240.914 129.812L240.11 129.392C239.894 129.968 239.294 130.28 238.418 130.28C237.314 130.28 236.582 129.572 236.462 128.36H240.986C241.01 128.192 241.034 127.964 241.034 127.688ZM238.346 125.72C239.366 125.72 239.978 126.404 240.11 127.508H236.474C236.618 126.38 237.278 125.72 238.346 125.72ZM243.338 129.56C242.87 129.56 242.558 129.872 242.558 130.34C242.558 130.808 242.87 131.12 243.338 131.12C243.806 131.12 244.118 130.808 244.118 130.34C244.118 129.872 243.806 129.56 243.338 129.56Z" fill="white"/>
<defs>
<filter id="filter0_f_2916_3883" x="0.564453" y="0.56543" width="168.869" height="168.869" filterUnits="userSpaceOnUse" color-interpolation-filters="sRGB">
<feFlood flood-opacity="0" result="BackgroundImageFix"/>
<feBlend mode="normal" in="SourceGraphic" in2="BackgroundImageFix" result="shape"/>
<feGaussianBlur stdDeviation="27" result="effect1_foregroundBlur_2916_3883"/>
</filter>
<linearGradient id="paint0_linear_2916_3883" x1="54.9584" y1="43.333" x2="118.56" y2="56.5725" gradientUnits="userSpaceOnUse">
<stop stop-color="#A259FF"/>
<stop offset="1" stop-color="#3B3B3B"/>
</linearGradient>
<linearGradient id="paint1_linear_2916_3883" x1="120.144" y1="90.0727" x2="97.4971" y2="129.11" gradientUnits="userSpaceOnUse">
<stop stop-color="#A259FF" stop-opacity="0"/>
<stop offset="1" stop-color="#FF6250"/>
</linearGradient>
<linearGradient id="paint2_linear_2916_3883" x1="119.669" y1="54.6132" x2="125.006" y2="58.8051" gradientUnits="userSpaceOnUse">
<stop stop-color="#A259FF"/>
<stop offset="1" stop-color="#377DF7"/>
</linearGradient>
<linearGradient id="paint3_linear_2916_3883" x1="55.4327" y1="116.712" x2="55.2544" y2="122.022" gradientUnits="userSpaceOnUse">
<stop stop-color="#A259FF"/>
<stop offset="1" stop-color="#377DF7"/>
</linearGradient>
<linearGradient id="paint4_linear_2916_3883" x1="114.031" y1="106.108" x2="119.335" y2="105.804" gradientUnits="userSpaceOnUse">
<stop stop-color="#A259FF"/>
<stop offset="1" stop-color="#377DF7"/>
</linearGradient>
<linearGradient id="paint5_linear_2916_3883" x1="92.6377" y1="94.2144" x2="108.158" y2="131.307" gradientUnits="userSpaceOnUse">
<stop stop-color="#A259FF"/>
<stop offset="0.416667" stop-color="#A259FF" stop-opacity="0"/>
</linearGradient>
<linearGradient id="paint6_linear_2916_3883" x1="97.1728" y1="91.5326" x2="70.5111" y2="99.7257" gradientUnits="userSpaceOnUse">
<stop stop-color="#FF7262"/>
<stop offset="0.317708" stop-color="#A259FF"/>
</linearGradient>
<linearGradient id="paint7_linear_2916_3883" x1="92.9816" y1="79.6205" x2="95.9367" y2="85.8448" gradientUnits="userSpaceOnUse">
<stop stop-color="#3B3B3B"/>
<stop offset="1" stop-color="#A259FF"/>
</linearGradient>
<linearGradient id="paint8_linear_2916_3883" x1="103.42" y1="68.9329" x2="106.025" y2="71.4905" gradientUnits="userSpaceOnUse">
<stop stop-color="#3B3B3B"/>
<stop offset="1" stop-color="#A259FF"/>
</linearGradient>
<linearGradient id="paint9_linear_2916_3883" x1="98.4153" y1="80.7518" x2="101.37" y2="86.9757" gradientUnits="userSpaceOnUse">
<stop stop-color="#3B3B3B"/>
<stop offset="1" stop-color="#A259FF"/>
</linearGradient>
<linearGradient id="paint10_linear_2916_3883" x1="108.863" y1="70.058" x2="111.468" y2="72.6153" gradientUnits="userSpaceOnUse">
<stop stop-color="#3B3B3B"/>
<stop offset="1" stop-color="#A259FF"/>
</linearGradient>
<linearGradient id="paint11_linear_2916_3883" x1="102.221" y1="76.4008" x2="102.115" y2="83.7225" gradientUnits="userSpaceOnUse">
<stop stop-color="#3B3B3B"/>
<stop offset="1" stop-color="#A259FF"/>
</linearGradient>
<linearGradient id="paint12_linear_2916_3883" x1="101.06" y1="78.0064" x2="100.953" y2="85.3281" gradientUnits="userSpaceOnUse">
<stop stop-color="#3B3B3B"/>
<stop offset="1" stop-color="#A259FF"/>
</linearGradient>
<linearGradient id="paint13_linear_2916_3883" x1="84.4822" y1="58.5129" x2="89.1873" y2="73.8914" gradientUnits="userSpaceOnUse">
<stop stop-color="#FF7262"/>
<stop offset="1" stop-color="#A259FF"/>
</linearGradient>
<linearGradient id="paint14_linear_2916_3883" x1="81.1571" y1="84.2758" x2="76.0462" y2="65.3973" gradientUnits="userSpaceOnUse">
<stop stop-color="#A259FF"/>
<stop offset="1" stop-color="white"/>
</linearGradient>
<linearGradient id="paint15_linear_2916_3883" x1="89.8056" y1="108.48" x2="70.2615" y2="58.7538" gradientUnits="userSpaceOnUse">
<stop stop-color="#A259FF"/>
<stop offset="0.666667" stop-color="white"/>
</linearGradient>
</defs>
</svg>
